<?xml version="1.0" encoding="utf-8" standalone="no"?>
<!DOCTYPE svg PUBLIC "-//W3C//DTD SVG 1.1//EN"
  "http://www.w3.org/Graphics/SVG/1.1/DTD/svg11.dtd">
<!-- Created with matplotlib (https://matplotlib.org/) -->
<svg height="432pt" version="1.1" viewBox="0 0 720 432" width="720pt" xmlns="http://www.w3.org/2000/svg" xmlns:xlink="http://www.w3.org/1999/xlink">
 <defs>
  <style type="text/css">
*{stroke-linecap:butt;stroke-linejoin:round;}
  </style>
 </defs>
 <g id="figure_1">
  <g id="patch_1">
   <path d="M 0 432 
L 720 432 
L 720 0 
L 0 0 
z
" style="fill:#ffffff;"/>
  </g>
  <g id="axes_1">
   <g id="patch_2">
    <path d="M 90 384.48 
L 648 384.48 
L 648 51.84 
L 90 51.84 
z
" style="fill:#ffffff;"/>
   </g>
   <g id="matplotlib.axis_1">
    <g id="xtick_1">
     <g id="line2d_1">
      <defs>
       <path d="M 0 0 
L 0 3.5 
" id="mb961a4cdc9" style="stroke:#000000;stroke-width:0.8;"/>
      </defs>
      <g>
       <use style="stroke:#000000;stroke-width:0.8;" x="90" xlink:href="#mb961a4cdc9" y="384.48"/>
      </g>
     </g>
     <g id="text_1">
      <!-- Mar 04 -->
      <defs>
       <path d="M 9.8125 72.90625 
L 24.515625 72.90625 
L 43.109375 23.296875 
L 61.8125 72.90625 
L 76.515625 72.90625 
L 76.515625 0 
L 66.890625 0 
L 66.890625 64.015625 
L 48.09375 14.015625 
L 38.1875 14.015625 
L 19.390625 64.015625 
L 19.390625 0 
L 9.8125 0 
z
" id="DejaVuSans-77"/>
       <path d="M 34.28125 27.484375 
Q 23.390625 27.484375 19.1875 25 
Q 14.984375 22.515625 14.984375 16.5 
Q 14.984375 11.71875 18.140625 8.90625 
Q 21.296875 6.109375 26.703125 6.109375 
Q 34.1875 6.109375 38.703125 11.40625 
Q 43.21875 16.703125 43.21875 25.484375 
L 43.21875 27.484375 
z
M 52.203125 31.203125 
L 52.203125 0 
L 43.21875 0 
L 43.21875 8.296875 
Q 40.140625 3.328125 35.546875 0.953125 
Q 30.953125 -1.421875 24.3125 -1.421875 
Q 15.921875 -1.421875 10.953125 3.296875 
Q 6 8.015625 6 15.921875 
Q 6 25.140625 12.171875 29.828125 
Q 18.359375 34.515625 30.609375 34.515625 
L 43.21875 34.515625 
L 43.21875 35.40625 
Q 43.21875 41.609375 39.140625 45 
Q 35.0625 48.390625 27.6875 48.390625 
Q 23 48.390625 18.546875 47.265625 
Q 14.109375 46.140625 10.015625 43.890625 
L 10.015625 52.203125 
Q 14.9375 54.109375 19.578125 55.046875 
Q 24.21875 56 28.609375 56 
Q 40.484375 56 46.34375 49.84375 
Q 52.203125 43.703125 52.203125 31.203125 
z
" id="DejaVuSans-97"/>
       <path d="M 41.109375 46.296875 
Q 39.59375 47.171875 37.8125 47.578125 
Q 36.03125 48 33.890625 48 
Q 26.265625 48 22.1875 43.046875 
Q 18.109375 38.09375 18.109375 28.8125 
L 18.109375 0 
L 9.078125 0 
L 9.078125 54.6875 
L 18.109375 54.6875 
L 18.109375 46.1875 
Q 20.953125 51.171875 25.484375 53.578125 
Q 30.03125 56 36.53125 56 
Q 37.453125 56 38.578125 55.875 
Q 39.703125 55.765625 41.0625 55.515625 
z
" id="DejaVuSans-114"/>
       <path id="DejaVuSans-32"/>
       <path d="M 31.78125 66.40625 
Q 24.171875 66.40625 20.328125 58.90625 
Q 16.5 51.421875 16.5 36.375 
Q 16.5 21.390625 20.328125 13.890625 
Q 24.171875 6.390625 31.78125 6.390625 
Q 39.453125 6.390625 43.28125 13.890625 
Q 47.125 21.390625 47.125 36.375 
Q 47.125 51.421875 43.28125 58.90625 
Q 39.453125 66.40625 31.78125 66.40625 
z
M 31.78125 74.21875 
Q 44.046875 74.21875 50.515625 64.515625 
Q 56.984375 54.828125 56.984375 36.375 
Q 56.984375 17.96875 50.515625 8.265625 
Q 44.046875 -1.421875 31.78125 -1.421875 
Q 19.53125 -1.421875 13.0625 8.265625 
Q 6.59375 17.96875 6.59375 36.375 
Q 6.59375 54.828125 13.0625 64.515625 
Q 19.53125 74.21875 31.78125 74.21875 
z
" id="DejaVuSans-48"/>
       <path d="M 37.796875 64.3125 
L 12.890625 25.390625 
L 37.796875 25.390625 
z
M 35.203125 72.90625 
L 47.609375 72.90625 
L 47.609375 25.390625 
L 58.015625 25.390625 
L 58.015625 17.1875 
L 47.609375 17.1875 
L 47.609375 0 
L 37.796875 0 
L 37.796875 17.1875 
L 4.890625 17.1875 
L 4.890625 26.703125 
z
" id="DejaVuSans-52"/>
      </defs>
      <g transform="translate(72.614844 399.078438)scale(0.1 -0.1)">
       <use xlink:href="#DejaVuSans-77"/>
       <use x="86.279297" xlink:href="#DejaVuSans-97"/>
       <use x="147.558594" xlink:href="#DejaVuSans-114"/>
       <use x="188.671875" xlink:href="#DejaVuSans-32"/>
       <use x="220.458984" xlink:href="#DejaVuSans-48"/>
       <use x="284.082031" xlink:href="#DejaVuSans-52"/>
      </g>
     </g>
    </g>
    <g id="xtick_2">
     <g id="line2d_2">
      <g>
       <use style="stroke:#000000;stroke-width:0.8;" x="145.8" xlink:href="#mb961a4cdc9" y="384.48"/>
      </g>
     </g>
     <g id="text_2">
      <!-- Mar 05 -->
      <defs>
       <path d="M 10.796875 72.90625 
L 49.515625 72.90625 
L 49.515625 64.59375 
L 19.828125 64.59375 
L 19.828125 46.734375 
Q 21.96875 47.46875 24.109375 47.828125 
Q 26.265625 48.1875 28.421875 48.1875 
Q 40.625 48.1875 47.75 41.5 
Q 54.890625 34.8125 54.890625 23.390625 
Q 54.890625 11.625 47.5625 5.09375 
Q 40.234375 -1.421875 26.90625 -1.421875 
Q 22.3125 -1.421875 17.546875 -0.640625 
Q 12.796875 0.140625 7.71875 1.703125 
L 7.71875 11.625 
Q 12.109375 9.234375 16.796875 8.0625 
Q 21.484375 6.890625 26.703125 6.890625 
Q 35.15625 6.890625 40.078125 11.328125 
Q 45.015625 15.765625 45.015625 23.390625 
Q 45.015625 31 40.078125 35.4375 
Q 35.15625 39.890625 26.703125 39.890625 
Q 22.75 39.890625 18.8125 39.015625 
Q 14.890625 38.140625 10.796875 36.28125 
z
" id="DejaVuSans-53"/>
      </defs>
      <g transform="translate(128.414844 399.078438)scale(0.1 -0.1)">
       <use xlink:href="#DejaVuSans-77"/>
       <use x="86.279297" xlink:href="#DejaVuSans-97"/>
       <use x="147.558594" xlink:href="#DejaVuSans-114"/>
       <use x="188.671875" xlink:href="#DejaVuSans-32"/>
       <use x="220.458984" xlink:href="#DejaVuSans-48"/>
       <use x="284.082031" xlink:href="#DejaVuSans-53"/>
      </g>
     </g>
    </g>
    <g id="xtick_3">
     <g id="line2d_3">
      <g>
       <use style="stroke:#000000;stroke-width:0.8;" x="201.6" xlink:href="#mb961a4cdc9" y="384.48"/>
      </g>
     </g>
     <g id="text_3">
      <!-- Mar 06 -->
      <defs>
       <path d="M 33.015625 40.375 
Q 26.375 40.375 22.484375 35.828125 
Q 18.609375 31.296875 18.609375 23.390625 
Q 18.609375 15.53125 22.484375 10.953125 
Q 26.375 6.390625 33.015625 6.390625 
Q 39.65625 6.390625 43.53125 10.953125 
Q 47.40625 15.53125 47.40625 23.390625 
Q 47.40625 31.296875 43.53125 35.828125 
Q 39.65625 40.375 33.015625 40.375 
z
M 52.59375 71.296875 
L 52.59375 62.3125 
Q 48.875 64.0625 45.09375 64.984375 
Q 41.3125 65.921875 37.59375 65.921875 
Q 27.828125 65.921875 22.671875 59.328125 
Q 17.53125 52.734375 16.796875 39.40625 
Q 19.671875 43.65625 24.015625 45.921875 
Q 28.375 48.1875 33.59375 48.1875 
Q 44.578125 48.1875 50.953125 41.515625 
Q 57.328125 34.859375 57.328125 23.390625 
Q 57.328125 12.15625 50.6875 5.359375 
Q 44.046875 -1.421875 33.015625 -1.421875 
Q 20.359375 -1.421875 13.671875 8.265625 
Q 6.984375 17.96875 6.984375 36.375 
Q 6.984375 53.65625 15.1875 63.9375 
Q 23.390625 74.21875 37.203125 74.21875 
Q 40.921875 74.21875 44.703125 73.484375 
Q 48.484375 72.75 52.59375 71.296875 
z
" id="DejaVuSans-54"/>
      </defs>
      <g transform="translate(184.214844 399.078438)scale(0.1 -0.1)">
       <use xlink:href="#DejaVuSans-77"/>
       <use x="86.279297" xlink:href="#DejaVuSans-97"/>
       <use x="147.558594" xlink:href="#DejaVuSans-114"/>
       <use x="188.671875" xlink:href="#DejaVuSans-32"/>
       <use x="220.458984" xlink:href="#DejaVuSans-48"/>
       <use x="284.082031" xlink:href="#DejaVuSans-54"/>
      </g>
     </g>
    </g>
    <g id="xtick_4">
     <g id="line2d_4">
      <g>
       <use style="stroke:#000000;stroke-width:0.8;" x="257.4" xlink:href="#mb961a4cdc9" y="384.48"/>
      </g>
     </g>
     <g id="text_4">
      <!-- Mar 07 -->
      <defs>
       <path d="M 8.203125 72.90625 
L 55.078125 72.90625 
L 55.078125 68.703125 
L 28.609375 0 
L 18.3125 0 
L 43.21875 64.59375 
L 8.203125 64.59375 
z
" id="DejaVuSans-55"/>
      </defs>
      <g transform="translate(240.014844 399.078438)scale(0.1 -0.1)">
       <use xlink:href="#DejaVuSans-77"/>
       <use x="86.279297" xlink:href="#DejaVuSans-97"/>
       <use x="147.558594" xlink:href="#DejaVuSans-114"/>
       <use x="188.671875" xlink:href="#DejaVuSans-32"/>
       <use x="220.458984" xlink:href="#DejaVuSans-48"/>
       <use x="284.082031" xlink:href="#DejaVuSans-55"/>
      </g>
     </g>
    </g>
    <g id="xtick_5">
     <g id="line2d_5">
      <g>
       <use style="stroke:#000000;stroke-width:0.8;" x="313.2" xlink:href="#mb961a4cdc9" y="384.48"/>
      </g>
     </g>
     <g id="text_5">
      <!-- Mar 08 -->
      <defs>
       <path d="M 31.78125 34.625 
Q 24.75 34.625 20.71875 30.859375 
Q 16.703125 27.09375 16.703125 20.515625 
Q 16.703125 13.921875 20.71875 10.15625 
Q 24.75 6.390625 31.78125 6.390625 
Q 38.8125 6.390625 42.859375 10.171875 
Q 46.921875 13.96875 46.921875 20.515625 
Q 46.921875 27.09375 42.890625 30.859375 
Q 38.875 34.625 31.78125 34.625 
z
M 21.921875 38.8125 
Q 15.578125 40.375 12.03125 44.71875 
Q 8.5 49.078125 8.5 55.328125 
Q 8.5 64.0625 14.71875 69.140625 
Q 20.953125 74.21875 31.78125 74.21875 
Q 42.671875 74.21875 48.875 69.140625 
Q 55.078125 64.0625 55.078125 55.328125 
Q 55.078125 49.078125 51.53125 44.71875 
Q 48 40.375 41.703125 38.8125 
Q 48.828125 37.15625 52.796875 32.3125 
Q 56.78125 27.484375 56.78125 20.515625 
Q 56.78125 9.90625 50.3125 4.234375 
Q 43.84375 -1.421875 31.78125 -1.421875 
Q 19.734375 -1.421875 13.25 4.234375 
Q 6.78125 9.90625 6.78125 20.515625 
Q 6.78125 27.484375 10.78125 32.3125 
Q 14.796875 37.15625 21.921875 38.8125 
z
M 18.3125 54.390625 
Q 18.3125 48.734375 21.84375 45.5625 
Q 25.390625 42.390625 31.78125 42.390625 
Q 38.140625 42.390625 41.71875 45.5625 
Q 45.3125 48.734375 45.3125 54.390625 
Q 45.3125 60.0625 41.71875 63.234375 
Q 38.140625 66.40625 31.78125 66.40625 
Q 25.390625 66.40625 21.84375 63.234375 
Q 18.3125 60.0625 18.3125 54.390625 
z
" id="DejaVuSans-56"/>
      </defs>
      <g transform="translate(295.814844 399.078438)scale(0.1 -0.1)">
       <use xlink:href="#DejaVuSans-77"/>
       <use x="86.279297" xlink:href="#DejaVuSans-97"/>
       <use x="147.558594" xlink:href="#DejaVuSans-114"/>
       <use x="188.671875" xlink:href="#DejaVuSans-32"/>
       <use x="220.458984" xlink:href="#DejaVuSans-48"/>
       <use x="284.082031" xlink:href="#DejaVuSans-56"/>
      </g>
     </g>
    </g>
    <g id="xtick_6">
     <g id="line2d_6">
      <g>
       <use style="stroke:#000000;stroke-width:0.8;" x="369" xlink:href="#mb961a4cdc9" y="384.48"/>
      </g>
     </g>
     <g id="text_6">
      <!-- Mar 09 -->
      <defs>
       <path d="M 10.984375 1.515625 
L 10.984375 10.5 
Q 14.703125 8.734375 18.5 7.8125 
Q 22.3125 6.890625 25.984375 6.890625 
Q 35.75 6.890625 40.890625 13.453125 
Q 46.046875 20.015625 46.78125 33.40625 
Q 43.953125 29.203125 39.59375 26.953125 
Q 35.25 24.703125 29.984375 24.703125 
Q 19.046875 24.703125 12.671875 31.3125 
Q 6.296875 37.9375 6.296875 49.421875 
Q 6.296875 60.640625 12.9375 67.421875 
Q 19.578125 74.21875 30.609375 74.21875 
Q 43.265625 74.21875 49.921875 64.515625 
Q 56.59375 54.828125 56.59375 36.375 
Q 56.59375 19.140625 48.40625 8.859375 
Q 40.234375 -1.421875 26.421875 -1.421875 
Q 22.703125 -1.421875 18.890625 -0.6875 
Q 15.09375 0.046875 10.984375 1.515625 
z
M 30.609375 32.421875 
Q 37.25 32.421875 41.125 36.953125 
Q 45.015625 41.5 45.015625 49.421875 
Q 45.015625 57.28125 41.125 61.84375 
Q 37.25 66.40625 30.609375 66.40625 
Q 23.96875 66.40625 20.09375 61.84375 
Q 16.21875 57.28125 16.21875 49.421875 
Q 16.21875 41.5 20.09375 36.953125 
Q 23.96875 32.421875 30.609375 32.421875 
z
" id="DejaVuSans-57"/>
      </defs>
      <g transform="translate(351.614844 399.078438)scale(0.1 -0.1)">
       <use xlink:href="#DejaVuSans-77"/>
       <use x="86.279297" xlink:href="#DejaVuSans-97"/>
       <use x="147.558594" xlink:href="#DejaVuSans-114"/>
       <use x="188.671875" xlink:href="#DejaVuSans-32"/>
       <use x="220.458984" xlink:href="#DejaVuSans-48"/>
       <use x="284.082031" xlink:href="#DejaVuSans-57"/>
      </g>
     </g>
    </g>
    <g id="xtick_7">
     <g id="line2d_7">
      <g>
       <use style="stroke:#000000;stroke-width:0.8;" x="424.8" xlink:href="#mb961a4cdc9" y="384.48"/>
      </g>
     </g>
     <g id="text_7">
      <!-- Mar 10 -->
      <defs>
       <path d="M 12.40625 8.296875 
L 28.515625 8.296875 
L 28.515625 63.921875 
L 10.984375 60.40625 
L 10.984375 69.390625 
L 28.421875 72.90625 
L 38.28125 72.90625 
L 38.28125 8.296875 
L 54.390625 8.296875 
L 54.390625 0 
L 12.40625 0 
z
" id="DejaVuSans-49"/>
      </defs>
      <g transform="translate(407.414844 399.078438)scale(0.1 -0.1)">
       <use xlink:href="#DejaVuSans-77"/>
       <use x="86.279297" xlink:href="#DejaVuSans-97"/>
       <use x="147.558594" xlink:href="#DejaVuSans-114"/>
       <use x="188.671875" xlink:href="#DejaVuSans-32"/>
       <use x="220.458984" xlink:href="#DejaVuSans-49"/>
       <use x="284.082031" xlink:href="#DejaVuSans-48"/>
      </g>
     </g>
    </g>
    <g id="xtick_8">
     <g id="line2d_8">
      <g>
       <use style="stroke:#000000;stroke-width:0.8;" x="480.6" xlink:href="#mb961a4cdc9" y="384.48"/>
      </g>
     </g>
     <g id="text_8">
      <!-- Mar 11 -->
      <g transform="translate(463.214844 399.078438)scale(0.1 -0.1)">
       <use xlink:href="#DejaVuSans-77"/>
       <use x="86.279297" xlink:href="#DejaVuSans-97"/>
       <use x="147.558594" xlink:href="#DejaVuSans-114"/>
       <use x="188.671875" xlink:href="#DejaVuSans-32"/>
       <use x="220.458984" xlink:href="#DejaVuSans-49"/>
       <use x="284.082031" xlink:href="#DejaVuSans-49"/>
      </g>
     </g>
    </g>
    <g id="xtick_9">
     <g id="line2d_9">
      <g>
       <use style="stroke:#000000;stroke-width:0.8;" x="536.4" xlink:href="#mb961a4cdc9" y="384.48"/>
      </g>
     </g>
     <g id="text_9">
      <!-- Mar 12 -->
      <defs>
       <path d="M 19.1875 8.296875 
L 53.609375 8.296875 
L 53.609375 0 
L 7.328125 0 
L 7.328125 8.296875 
Q 12.9375 14.109375 22.625 23.890625 
Q 32.328125 33.6875 34.8125 36.53125 
Q 39.546875 41.84375 41.421875 45.53125 
Q 43.3125 49.21875 43.3125 52.78125 
Q 43.3125 58.59375 39.234375 62.25 
Q 35.15625 65.921875 28.609375 65.921875 
Q 23.96875 65.921875 18.8125 64.3125 
Q 13.671875 62.703125 7.8125 59.421875 
L 7.8125 69.390625 
Q 13.765625 71.78125 18.9375 73 
Q 24.125 74.21875 28.421875 74.21875 
Q 39.75 74.21875 46.484375 68.546875 
Q 53.21875 62.890625 53.21875 53.421875 
Q 53.21875 48.921875 51.53125 44.890625 
Q 49.859375 40.875 45.40625 35.40625 
Q 44.1875 33.984375 37.640625 27.21875 
Q 31.109375 20.453125 19.1875 8.296875 
z
" id="DejaVuSans-50"/>
      </defs>
      <g transform="translate(519.014844 399.078438)scale(0.1 -0.1)">
       <use xlink:href="#DejaVuSans-77"/>
       <use x="86.279297" xlink:href="#DejaVuSans-97"/>
       <use x="147.558594" xlink:href="#DejaVuSans-114"/>
       <use x="188.671875" xlink:href="#DejaVuSans-32"/>
       <use x="220.458984" xlink:href="#DejaVuSans-49"/>
       <use x="284.082031" xlink:href="#DejaVuSans-50"/>
      </g>
     </g>
    </g>
    <g id="xtick_10">
     <g id="line2d_10">
      <g>
       <use style="stroke:#000000;stroke-width:0.8;" x="592.2" xlink:href="#mb961a4cdc9" y="384.48"/>
      </g>
     </g>
     <g id="text_10">
      <!-- Mar 13 -->
      <defs>
       <path d="M 40.578125 39.3125 
Q 47.65625 37.796875 51.625 33 
Q 55.609375 28.21875 55.609375 21.1875 
Q 55.609375 10.40625 48.1875 4.484375 
Q 40.765625 -1.421875 27.09375 -1.421875 
Q 22.515625 -1.421875 17.65625 -0.515625 
Q 12.796875 0.390625 7.625 2.203125 
L 7.625 11.71875 
Q 11.71875 9.328125 16.59375 8.109375 
Q 21.484375 6.890625 26.8125 6.890625 
Q 36.078125 6.890625 40.9375 10.546875 
Q 45.796875 14.203125 45.796875 21.1875 
Q 45.796875 27.640625 41.28125 31.265625 
Q 36.765625 34.90625 28.71875 34.90625 
L 20.21875 34.90625 
L 20.21875 43.015625 
L 29.109375 43.015625 
Q 36.375 43.015625 40.234375 45.921875 
Q 44.09375 48.828125 44.09375 54.296875 
Q 44.09375 59.90625 40.109375 62.90625 
Q 36.140625 65.921875 28.71875 65.921875 
Q 24.65625 65.921875 20.015625 65.03125 
Q 15.375 64.15625 9.8125 62.3125 
L 9.8125 71.09375 
Q 15.4375 72.65625 20.34375 73.4375 
Q 25.25 74.21875 29.59375 74.21875 
Q 40.828125 74.21875 47.359375 69.109375 
Q 53.90625 64.015625 53.90625 55.328125 
Q 53.90625 49.265625 50.4375 45.09375 
Q 46.96875 40.921875 40.578125 39.3125 
z
" id="DejaVuSans-51"/>
      </defs>
      <g transform="translate(574.814844 399.078438)scale(0.1 -0.1)">
       <use xlink:href="#DejaVuSans-77"/>
       <use x="86.279297" xlink:href="#DejaVuSans-97"/>
       <use x="147.558594" xlink:href="#DejaVuSans-114"/>
       <use x="188.671875" xlink:href="#DejaVuSans-32"/>
       <use x="220.458984" xlink:href="#DejaVuSans-49"/>
       <use x="284.082031" xlink:href="#DejaVuSans-51"/>
      </g>
     </g>
    </g>
    <g id="xtick_11">
     <g id="line2d_11">
      <g>
       <use style="stroke:#000000;stroke-width:0.8;" x="648" xlink:href="#mb961a4cdc9" y="384.48"/>
      </g>
     </g>
     <g id="text_11">
      <!-- Mar 14 -->
      <g transform="translate(630.614844 399.078438)scale(0.1 -0.1)">
       <use xlink:href="#DejaVuSans-77"/>
       <use x="86.279297" xlink:href="#DejaVuSans-97"/>
       <use x="147.558594" xlink:href="#DejaVuSans-114"/>
       <use x="188.671875" xlink:href="#DejaVuSans-32"/>
       <use x="220.458984" xlink:href="#DejaVuSans-49"/>
       <use x="284.082031" xlink:href="#DejaVuSans-52"/>
      </g>
     </g>
    </g>
   </g>
   <g id="matplotlib.axis_2">
    <g id="ytick_1">
     <g id="line2d_12">
      <defs>
       <path d="M 0 0 
L -3.5 0 
" id="m5214c46074" style="stroke:#000000;stroke-width:0.8;"/>
      </defs>
      <g>
       <use style="stroke:#000000;stroke-width:0.8;" x="90" xlink:href="#m5214c46074" y="369.36"/>
      </g>
     </g>
     <g id="text_12">
      <!-- 0 -->
      <g transform="translate(76.6375 373.159219)scale(0.1 -0.1)">
       <use xlink:href="#DejaVuSans-48"/>
      </g>
     </g>
    </g>
    <g id="ytick_2">
     <g id="line2d_13">
      <g>
       <use style="stroke:#000000;stroke-width:0.8;" x="90" xlink:href="#m5214c46074" y="325.406512"/>
      </g>
     </g>
     <g id="text_13">
      <!-- 100 -->
      <g transform="translate(63.9125 329.20573)scale(0.1 -0.1)">
       <use xlink:href="#DejaVuSans-49"/>
       <use x="63.623047" xlink:href="#DejaVuSans-48"/>
       <use x="127.246094" xlink:href="#DejaVuSans-48"/>
      </g>
     </g>
    </g>
    <g id="ytick_3">
     <g id="line2d_14">
      <g>
       <use style="stroke:#000000;stroke-width:0.8;" x="90" xlink:href="#m5214c46074" y="281.453023"/>
      </g>
     </g>
     <g id="text_14">
      <!-- 200 -->
      <g transform="translate(63.9125 285.252242)scale(0.1 -0.1)">
       <use xlink:href="#DejaVuSans-50"/>
       <use x="63.623047" xlink:href="#DejaVuSans-48"/>
       <use x="127.246094" xlink:href="#DejaVuSans-48"/>
      </g>
     </g>
    </g>
    <g id="ytick_4">
     <g id="line2d_15">
      <g>
       <use style="stroke:#000000;stroke-width:0.8;" x="90" xlink:href="#m5214c46074" y="237.499535"/>
      </g>
     </g>
     <g id="text_15">
      <!-- 300 -->
      <g transform="translate(63.9125 241.298754)scale(0.1 -0.1)">
       <use xlink:href="#DejaVuSans-51"/>
       <use x="63.623047" xlink:href="#DejaVuSans-48"/>
       <use x="127.246094" xlink:href="#DejaVuSans-48"/>
      </g>
     </g>
    </g>
    <g id="ytick_5">
     <g id="line2d_16">
      <g>
       <use style="stroke:#000000;stroke-width:0.8;" x="90" xlink:href="#m5214c46074" y="193.546047"/>
      </g>
     </g>
     <g id="text_16">
      <!-- 400 -->
      <g transform="translate(63.9125 197.345265)scale(0.1 -0.1)">
       <use xlink:href="#DejaVuSans-52"/>
       <use x="63.623047" xlink:href="#DejaVuSans-48"/>
       <use x="127.246094" xlink:href="#DejaVuSans-48"/>
      </g>
     </g>
    </g>
    <g id="ytick_6">
     <g id="line2d_17">
      <g>
       <use style="stroke:#000000;stroke-width:0.8;" x="90" xlink:href="#m5214c46074" y="149.592558"/>
      </g>
     </g>
     <g id="text_17">
      <!-- 500 -->
      <g transform="translate(63.9125 153.391777)scale(0.1 -0.1)">
       <use xlink:href="#DejaVuSans-53"/>
       <use x="63.623047" xlink:href="#DejaVuSans-48"/>
       <use x="127.246094" xlink:href="#DejaVuSans-48"/>
      </g>
     </g>
    </g>
    <g id="ytick_7">
     <g id="line2d_18">
      <g>
       <use style="stroke:#000000;stroke-width:0.8;" x="90" xlink:href="#m5214c46074" y="105.63907"/>
      </g>
     </g>
     <g id="text_18">
      <!-- 600 -->
      <g transform="translate(63.9125 109.438289)scale(0.1 -0.1)">
       <use xlink:href="#DejaVuSans-54"/>
       <use x="63.623047" xlink:href="#DejaVuSans-48"/>
       <use x="127.246094" xlink:href="#DejaVuSans-48"/>
      </g>
     </g>
    </g>
    <g id="ytick_8">
     <g id="line2d_19">
      <g>
       <use style="stroke:#000000;stroke-width:0.8;" x="90" xlink:href="#m5214c46074" y="61.685581"/>
      </g>
     </g>
     <g id="text_19">
      <!-- 700 -->
      <g transform="translate(63.9125 65.4848)scale(0.1 -0.1)">
       <use xlink:href="#DejaVuSans-55"/>
       <use x="63.623047" xlink:href="#DejaVuSans-48"/>
       <use x="127.246094" xlink:href="#DejaVuSans-48"/>
      </g>
     </g>
    </g>
   </g>
   <g id="line2d_20">
    <path clip-path="url(#p74d4f115f6)" d="M 90 318.813488 
L 145.8 289.804186 
L 201.6 224.753023 
L 257.4 205.413488 
L 313.2 194.425116 
L 369 156.625116 
L 424.8 156.625116 
L 480.6 156.625116 
L 536.4 66.96 
" style="fill:none;stroke:#1f77b4;stroke-linecap:square;stroke-width:1.5;"/>
    <defs>
     <path d="M 0 1.5 
C 0.397805 1.5 0.77937 1.341951 1.06066 1.06066 
C 1.341951 0.77937 1.5 0.397805 1.5 0 
C 1.5 -0.397805 1.341951 -0.77937 1.06066 -1.06066 
C 0.77937 -1.341951 0.397805 -1.5 0 -1.5 
C -0.397805 -1.5 -0.77937 -1.341951 -1.06066 -1.06066 
C -1.341951 -0.77937 -1.5 -0.397805 -1.5 0 
C -1.5 0.397805 -1.341951 0.77937 -1.06066 1.06066 
C -0.77937 1.341951 -0.397805 1.5 0 1.5 
z
" id="me45469d8bb" style="stroke:#1f77b4;"/>
    </defs>
    <g clip-path="url(#p74d4f115f6)">
     <use style="fill:#1f77b4;stroke:#1f77b4;" x="90" xlink:href="#me45469d8bb" y="318.813488"/>
     <use style="fill:#1f77b4;stroke:#1f77b4;" x="145.8" xlink:href="#me45469d8bb" y="289.804186"/>
     <use style="fill:#1f77b4;stroke:#1f77b4;" x="201.6" xlink:href="#me45469d8bb" y="224.753023"/>
     <use style="fill:#1f77b4;stroke:#1f77b4;" x="257.4" xlink:href="#me45469d8bb" y="205.413488"/>
     <use style="fill:#1f77b4;stroke:#1f77b4;" x="313.2" xlink:href="#me45469d8bb" y="194.425116"/>
     <use style="fill:#1f77b4;stroke:#1f77b4;" x="369" xlink:href="#me45469d8bb" y="156.625116"/>
     <use style="fill:#1f77b4;stroke:#1f77b4;" x="424.8" xlink:href="#me45469d8bb" y="156.625116"/>
     <use style="fill:#1f77b4;stroke:#1f77b4;" x="480.6" xlink:href="#me45469d8bb" y="156.625116"/>
     <use style="fill:#1f77b4;stroke:#1f77b4;" x="536.4" xlink:href="#me45469d8bb" y="66.96"/>
    </g>
   </g>
   <g id="line2d_21">
    <path clip-path="url(#p74d4f115f6)" d="M 90 348.262326 
L 145.8 338.592558 
L 201.6 317.934419 
L 257.4 310.462326 
L 313.2 293.76 
L 369 256.83907 
L 424.8 231.346047 
L 480.6 208.490233 
L 536.4 149.592558 
" style="fill:none;stroke:#ff7f0e;stroke-linecap:square;stroke-width:1.5;"/>
    <defs>
     <path d="M 0 1.5 
C 0.397805 1.5 0.77937 1.341951 1.06066 1.06066 
C 1.341951 0.77937 1.5 0.397805 1.5 0 
C 1.5 -0.397805 1.341951 -0.77937 1.06066 -1.06066 
C 0.77937 -1.341951 0.397805 -1.5 0 -1.5 
C -0.397805 -1.5 -0.77937 -1.341951 -1.06066 -1.06066 
C -1.341951 -0.77937 -1.5 -0.397805 -1.5 0 
C -1.5 0.397805 -1.341951 0.77937 -1.06066 1.06066 
C -0.77937 1.341951 -0.397805 1.5 0 1.5 
z
" id="m5d4ece54b9" style="stroke:#ff7f0e;"/>
    </defs>
    <g clip-path="url(#p74d4f115f6)">
     <use style="fill:#ff7f0e;stroke:#ff7f0e;" x="90" xlink:href="#m5d4ece54b9" y="348.262326"/>
     <use style="fill:#ff7f0e;stroke:#ff7f0e;" x="145.8" xlink:href="#m5d4ece54b9" y="338.592558"/>
     <use style="fill:#ff7f0e;stroke:#ff7f0e;" x="201.6" xlink:href="#m5d4ece54b9" y="317.934419"/>
     <use style="fill:#ff7f0e;stroke:#ff7f0e;" x="257.4" xlink:href="#m5d4ece54b9" y="310.462326"/>
     <use style="fill:#ff7f0e;stroke:#ff7f0e;" x="313.2" xlink:href="#m5d4ece54b9" y="293.76"/>
     <use style="fill:#ff7f0e;stroke:#ff7f0e;" x="369" xlink:href="#m5d4ece54b9" y="256.83907"/>
     <use style="fill:#ff7f0e;stroke:#ff7f0e;" x="424.8" xlink:href="#m5d4ece54b9" y="231.346047"/>
     <use style="fill:#ff7f0e;stroke:#ff7f0e;" x="480.6" xlink:href="#m5d4ece54b9" y="208.490233"/>
     <use style="fill:#ff7f0e;stroke:#ff7f0e;" x="536.4" xlink:href="#m5d4ece54b9" y="149.592558"/>
    </g>
   </g>
   <g id="line2d_22">
    <path clip-path="url(#p74d4f115f6)" d="M 90 347.383256 
L 145.8 337.273953 
L 201.6 327.164651 
L 257.4 294.63907 
L 313.2 289.364651 
L 369 279.694884 
L 424.8 265.190233 
L 480.6 247.608837 
L 536.4 169.811163 
" style="fill:none;stroke:#2ca02c;stroke-linecap:square;stroke-width:1.5;"/>
    <defs>
     <path d="M 0 1.5 
C 0.397805 1.5 0.77937 1.341951 1.06066 1.06066 
C 1.341951 0.77937 1.5 0.397805 1.5 0 
C 1.5 -0.397805 1.341951 -0.77937 1.06066 -1.06066 
C 0.77937 -1.341951 0.397805 -1.5 0 -1.5 
C -0.397805 -1.5 -0.77937 -1.341951 -1.06066 -1.06066 
C -1.341951 -0.77937 -1.5 -0.397805 -1.5 0 
C -1.5 0.397805 -1.341951 0.77937 -1.06066 1.06066 
C -0.77937 1.341951 -0.397805 1.5 0 1.5 
z
" id="m0fb1d75d70" style="stroke:#2ca02c;"/>
    </defs>
    <g clip-path="url(#p74d4f115f6)">
     <use style="fill:#2ca02c;stroke:#2ca02c;" x="90" xlink:href="#m0fb1d75d70" y="347.383256"/>
     <use style="fill:#2ca02c;stroke:#2ca02c;" x="145.8" xlink:href="#m0fb1d75d70" y="337.273953"/>
     <use style="fill:#2ca02c;stroke:#2ca02c;" x="201.6" xlink:href="#m0fb1d75d70" y="327.164651"/>
     <use style="fill:#2ca02c;stroke:#2ca02c;" x="257.4" xlink:href="#m0fb1d75d70" y="294.63907"/>
     <use style="fill:#2ca02c;stroke:#2ca02c;" x="313.2" xlink:href="#m0fb1d75d70" y="289.364651"/>
     <use style="fill:#2ca02c;stroke:#2ca02c;" x="369" xlink:href="#m0fb1d75d70" y="279.694884"/>
     <use style="fill:#2ca02c;stroke:#2ca02c;" x="424.8" xlink:href="#m0fb1d75d70" y="265.190233"/>
     <use style="fill:#2ca02c;stroke:#2ca02c;" x="480.6" xlink:href="#m0fb1d75d70" y="247.608837"/>
     <use style="fill:#2ca02c;stroke:#2ca02c;" x="536.4" xlink:href="#m0fb1d75d70" y="169.811163"/>
    </g>
   </g>
   <g id="line2d_23">
    <path clip-path="url(#p74d4f115f6)" d="M 90 366.283256 
L 145.8 363.646047 
L 201.6 361.008837 
L 257.4 357.053023 
L 313.2 351.778605 
L 369 348.262326 
L 424.8 348.262326 
L 480.6 329.80186 
L 536.4 309.143721 
" style="fill:none;stroke:#d62728;stroke-linecap:square;stroke-width:1.5;"/>
    <defs>
     <path d="M 0 1.5 
C 0.397805 1.5 0.77937 1.341951 1.06066 1.06066 
C 1.341951 0.77937 1.5 0.397805 1.5 0 
C 1.5 -0.397805 1.341951 -0.77937 1.06066 -1.06066 
C 0.77937 -1.341951 0.397805 -1.5 0 -1.5 
C -0.397805 -1.5 -0.77937 -1.341951 -1.06066 -1.06066 
C -1.341951 -0.77937 -1.5 -0.397805 -1.5 0 
C -1.5 0.397805 -1.341951 0.77937 -1.06066 1.06066 
C -0.77937 1.341951 -0.397805 1.5 0 1.5 
z
" id="mfa1b292ce5" style="stroke:#d62728;"/>
    </defs>
    <g clip-path="url(#p74d4f115f6)">
     <use style="fill:#d62728;stroke:#d62728;" x="90" xlink:href="#mfa1b292ce5" y="366.283256"/>
     <use style="fill:#d62728;stroke:#d62728;" x="145.8" xlink:href="#mfa1b292ce5" y="363.646047"/>
     <use style="fill:#d62728;stroke:#d62728;" x="201.6" xlink:href="#mfa1b292ce5" y="361.008837"/>
     <use style="fill:#d62728;stroke:#d62728;" x="257.4" xlink:href="#mfa1b292ce5" y="357.053023"/>
     <use style="fill:#d62728;stroke:#d62728;" x="313.2" xlink:href="#mfa1b292ce5" y="351.778605"/>
     <use style="fill:#d62728;stroke:#d62728;" x="369" xlink:href="#mfa1b292ce5" y="348.262326"/>
     <use style="fill:#d62728;stroke:#d62728;" x="424.8" xlink:href="#mfa1b292ce5" y="348.262326"/>
     <use style="fill:#d62728;stroke:#d62728;" x="480.6" xlink:href="#mfa1b292ce5" y="329.80186"/>
     <use style="fill:#d62728;stroke:#d62728;" x="536.4" xlink:href="#mfa1b292ce5" y="309.143721"/>
    </g>
   </g>
   <g id="line2d_24">
    <path clip-path="url(#p74d4f115f6)" d="M 90 366.283256 
L 145.8 361.448372 
L 201.6 361.448372 
L 257.4 361.008837 
L 313.2 360.129767 
L 369 352.657674 
L 424.8 347.822791 
L 480.6 336.394884 
L 536.4 312.66 
" style="fill:none;stroke:#9467bd;stroke-linecap:square;stroke-width:1.5;"/>
    <defs>
     <path d="M 0 1.5 
C 0.397805 1.5 0.77937 1.341951 1.06066 1.06066 
C 1.341951 0.77937 1.5 0.397805 1.5 0 
C 1.5 -0.397805 1.341951 -0.77937 1.06066 -1.06066 
C 0.77937 -1.341951 0.397805 -1.5 0 -1.5 
C -0.397805 -1.5 -0.77937 -1.341951 -1.06066 -1.06066 
C -1.341951 -0.77937 -1.5 -0.397805 -1.5 0 
C -1.5 0.397805 -1.341951 0.77937 -1.06066 1.06066 
C -0.77937 1.341951 -0.397805 1.5 0 1.5 
z
" id="m977adbccf1" style="stroke:#9467bd;"/>
    </defs>
    <g clip-path="url(#p74d4f115f6)">
     <use style="fill:#9467bd;stroke:#9467bd;" x="90" xlink:href="#m977adbccf1" y="366.283256"/>
     <use style="fill:#9467bd;stroke:#9467bd;" x="145.8" xlink:href="#m977adbccf1" y="361.448372"/>
     <use style="fill:#9467bd;stroke:#9467bd;" x="201.6" xlink:href="#m977adbccf1" y="361.448372"/>
     <use style="fill:#9467bd;stroke:#9467bd;" x="257.4" xlink:href="#m977adbccf1" y="361.008837"/>
     <use style="fill:#9467bd;stroke:#9467bd;" x="313.2" xlink:href="#m977adbccf1" y="360.129767"/>
     <use style="fill:#9467bd;stroke:#9467bd;" x="369" xlink:href="#m977adbccf1" y="352.657674"/>
     <use style="fill:#9467bd;stroke:#9467bd;" x="424.8" xlink:href="#m977adbccf1" y="347.822791"/>
     <use style="fill:#9467bd;stroke:#9467bd;" x="480.6" xlink:href="#m977adbccf1" y="336.394884"/>
     <use style="fill:#9467bd;stroke:#9467bd;" x="536.4" xlink:href="#m977adbccf1" y="312.66"/>
    </g>
   </g>
   <g id="line2d_25">
    <path clip-path="url(#p74d4f115f6)" d="M 90 364.085581 
L 145.8 363.206512 
L 201.6 362.327442 
L 257.4 361.887907 
L 313.2 361.008837 
L 369 357.932093 
L 424.8 353.976279 
L 480.6 348.262326 
L 536.4 325.846047 
" style="fill:none;stroke:#8c564b;stroke-linecap:square;stroke-width:1.5;"/>
    <defs>
     <path d="M 0 1.5 
C 0.397805 1.5 0.77937 1.341951 1.06066 1.06066 
C 1.341951 0.77937 1.5 0.397805 1.5 0 
C 1.5 -0.397805 1.341951 -0.77937 1.06066 -1.06066 
C 0.77937 -1.341951 0.397805 -1.5 0 -1.5 
C -0.397805 -1.5 -0.77937 -1.341951 -1.06066 -1.06066 
C -1.341951 -0.77937 -1.5 -0.397805 -1.5 0 
C -1.5 0.397805 -1.341951 0.77937 -1.06066 1.06066 
C -0.77937 1.341951 -0.397805 1.5 0 1.5 
z
" id="m6cb30984bc" style="stroke:#8c564b;"/>
    </defs>
    <g clip-path="url(#p74d4f115f6)">
     <use style="fill:#8c564b;stroke:#8c564b;" x="90" xlink:href="#m6cb30984bc" y="364.085581"/>
     <use style="fill:#8c564b;stroke:#8c564b;" x="145.8" xlink:href="#m6cb30984bc" y="363.206512"/>
     <use style="fill:#8c564b;stroke:#8c564b;" x="201.6" xlink:href="#m6cb30984bc" y="362.327442"/>
     <use style="fill:#8c564b;stroke:#8c564b;" x="257.4" xlink:href="#m6cb30984bc" y="361.887907"/>
     <use style="fill:#8c564b;stroke:#8c564b;" x="313.2" xlink:href="#m6cb30984bc" y="361.008837"/>
     <use style="fill:#8c564b;stroke:#8c564b;" x="369" xlink:href="#m6cb30984bc" y="357.932093"/>
     <use style="fill:#8c564b;stroke:#8c564b;" x="424.8" xlink:href="#m6cb30984bc" y="353.976279"/>
     <use style="fill:#8c564b;stroke:#8c564b;" x="480.6" xlink:href="#m6cb30984bc" y="348.262326"/>
     <use style="fill:#8c564b;stroke:#8c564b;" x="536.4" xlink:href="#m6cb30984bc" y="325.846047"/>
    </g>
   </g>
   <g id="line2d_26">
    <path clip-path="url(#p74d4f115f6)" d="M 90 368.041395 
L 145.8 367.162326 
L 201.6 364.525116 
L 257.4 363.646047 
L 313.2 363.646047 
L 369 361.887907 
L 424.8 356.613488 
L 480.6 348.262326 
L 536.4 330.68093 
" style="fill:none;stroke:#e377c2;stroke-linecap:square;stroke-width:1.5;"/>
    <defs>
     <path d="M 0 1.5 
C 0.397805 1.5 0.77937 1.341951 1.06066 1.06066 
C 1.341951 0.77937 1.5 0.397805 1.5 0 
C 1.5 -0.397805 1.341951 -0.77937 1.06066 -1.06066 
C 0.77937 -1.341951 0.397805 -1.5 0 -1.5 
C -0.397805 -1.5 -0.77937 -1.341951 -1.06066 -1.06066 
C -1.341951 -0.77937 -1.5 -0.397805 -1.5 0 
C -1.5 0.397805 -1.341951 0.77937 -1.06066 1.06066 
C -0.77937 1.341951 -0.397805 1.5 0 1.5 
z
" id="md6c85c1c07" style="stroke:#e377c2;"/>
    </defs>
    <g clip-path="url(#p74d4f115f6)">
     <use style="fill:#e377c2;stroke:#e377c2;" x="90" xlink:href="#md6c85c1c07" y="368.041395"/>
     <use style="fill:#e377c2;stroke:#e377c2;" x="145.8" xlink:href="#md6c85c1c07" y="367.162326"/>
     <use style="fill:#e377c2;stroke:#e377c2;" x="201.6" xlink:href="#md6c85c1c07" y="364.525116"/>
     <use style="fill:#e377c2;stroke:#e377c2;" x="257.4" xlink:href="#md6c85c1c07" y="363.646047"/>
     <use style="fill:#e377c2;stroke:#e377c2;" x="313.2" xlink:href="#md6c85c1c07" y="363.646047"/>
     <use style="fill:#e377c2;stroke:#e377c2;" x="369" xlink:href="#md6c85c1c07" y="361.887907"/>
     <use style="fill:#e377c2;stroke:#e377c2;" x="424.8" xlink:href="#md6c85c1c07" y="356.613488"/>
     <use style="fill:#e377c2;stroke:#e377c2;" x="480.6" xlink:href="#md6c85c1c07" y="348.262326"/>
     <use style="fill:#e377c2;stroke:#e377c2;" x="536.4" xlink:href="#md6c85c1c07" y="330.68093"/>
    </g>
   </g>
   <g id="line2d_27">
    <path clip-path="url(#p74d4f115f6)" d="M 90 366.283256 
L 145.8 365.843721 
L 201.6 364.964651 
L 257.4 363.646047 
L 313.2 361.008837 
L 369 361.887907 
L 424.8 358.371628 
L 480.6 358.371628 
L 536.4 346.504186 
" style="fill:none;stroke:#7f7f7f;stroke-linecap:square;stroke-width:1.5;"/>
    <defs>
     <path d="M 0 1.5 
C 0.397805 1.5 0.77937 1.341951 1.06066 1.06066 
C 1.341951 0.77937 1.5 0.397805 1.5 0 
C 1.5 -0.397805 1.341951 -0.77937 1.06066 -1.06066 
C 0.77937 -1.341951 0.397805 -1.5 0 -1.5 
C -0.397805 -1.5 -0.77937 -1.341951 -1.06066 -1.06066 
C -1.341951 -0.77937 -1.5 -0.397805 -1.5 0 
C -1.5 0.397805 -1.341951 0.77937 -1.06066 1.06066 
C -0.77937 1.341951 -0.397805 1.5 0 1.5 
z
" id="m087db5f899" style="stroke:#7f7f7f;"/>
    </defs>
    <g clip-path="url(#p74d4f115f6)">
     <use style="fill:#7f7f7f;stroke:#7f7f7f;" x="90" xlink:href="#m087db5f899" y="366.283256"/>
     <use style="fill:#7f7f7f;stroke:#7f7f7f;" x="145.8" xlink:href="#m087db5f899" y="365.843721"/>
     <use style="fill:#7f7f7f;stroke:#7f7f7f;" x="201.6" xlink:href="#m087db5f899" y="364.964651"/>
     <use style="fill:#7f7f7f;stroke:#7f7f7f;" x="257.4" xlink:href="#m087db5f899" y="363.646047"/>
     <use style="fill:#7f7f7f;stroke:#7f7f7f;" x="313.2" xlink:href="#m087db5f899" y="361.008837"/>
     <use style="fill:#7f7f7f;stroke:#7f7f7f;" x="369" xlink:href="#m087db5f899" y="361.887907"/>
     <use style="fill:#7f7f7f;stroke:#7f7f7f;" x="424.8" xlink:href="#m087db5f899" y="358.371628"/>
     <use style="fill:#7f7f7f;stroke:#7f7f7f;" x="480.6" xlink:href="#m087db5f899" y="358.371628"/>
     <use style="fill:#7f7f7f;stroke:#7f7f7f;" x="536.4" xlink:href="#m087db5f899" y="346.504186"/>
    </g>
   </g>
   <g id="line2d_28">
    <path clip-path="url(#p74d4f115f6)" d="M 90 368.920465 
L 145.8 368.920465 
L 201.6 368.48093 
L 257.4 367.60186 
L 313.2 367.60186 
L 369 364.085581 
L 424.8 359.690233 
L 480.6 357.932093 
L 536.4 349.58093 
" style="fill:none;stroke:#bcbd22;stroke-linecap:square;stroke-width:1.5;"/>
    <defs>
     <path d="M 0 1.5 
C 0.397805 1.5 0.77937 1.341951 1.06066 1.06066 
C 1.341951 0.77937 1.5 0.397805 1.5 0 
C 1.5 -0.397805 1.341951 -0.77937 1.06066 -1.06066 
C 0.77937 -1.341951 0.397805 -1.5 0 -1.5 
C -0.397805 -1.5 -0.77937 -1.341951 -1.06066 -1.06066 
C -1.341951 -0.77937 -1.5 -0.397805 -1.5 0 
C -1.5 0.397805 -1.341951 0.77937 -1.06066 1.06066 
C -0.77937 1.341951 -0.397805 1.5 0 1.5 
z
" id="m243845bade" style="stroke:#bcbd22;"/>
    </defs>
    <g clip-path="url(#p74d4f115f6)">
     <use style="fill:#bcbd22;stroke:#bcbd22;" x="90" xlink:href="#m243845bade" y="368.920465"/>
     <use style="fill:#bcbd22;stroke:#bcbd22;" x="145.8" xlink:href="#m243845bade" y="368.920465"/>
     <use style="fill:#bcbd22;stroke:#bcbd22;" x="201.6" xlink:href="#m243845bade" y="368.48093"/>
     <use style="fill:#bcbd22;stroke:#bcbd22;" x="257.4" xlink:href="#m243845bade" y="367.60186"/>
     <use style="fill:#bcbd22;stroke:#bcbd22;" x="313.2" xlink:href="#m243845bade" y="367.60186"/>
     <use style="fill:#bcbd22;stroke:#bcbd22;" x="369" xlink:href="#m243845bade" y="364.085581"/>
     <use style="fill:#bcbd22;stroke:#bcbd22;" x="424.8" xlink:href="#m243845bade" y="359.690233"/>
     <use style="fill:#bcbd22;stroke:#bcbd22;" x="480.6" xlink:href="#m243845bade" y="357.932093"/>
     <use style="fill:#bcbd22;stroke:#bcbd22;" x="536.4" xlink:href="#m243845bade" y="349.58093"/>
    </g>
   </g>
   <g id="line2d_29">
    <path clip-path="url(#p74d4f115f6)" d="M 90 368.041395 
L 145.8 368.041395 
L 201.6 367.60186 
L 257.4 367.60186 
L 313.2 367.60186 
L 369 367.60186 
L 424.8 367.60186 
L 480.6 360.129767 
L 536.4 352.657674 
" style="fill:none;stroke:#17becf;stroke-linecap:square;stroke-width:1.5;"/>
    <defs>
     <path d="M 0 1.5 
C 0.397805 1.5 0.77937 1.341951 1.06066 1.06066 
C 1.341951 0.77937 1.5 0.397805 1.5 0 
C 1.5 -0.397805 1.341951 -0.77937 1.06066 -1.06066 
C 0.77937 -1.341951 0.397805 -1.5 0 -1.5 
C -0.397805 -1.5 -0.77937 -1.341951 -1.06066 -1.06066 
C -1.341951 -0.77937 -1.5 -0.397805 -1.5 0 
C -1.5 0.397805 -1.341951 0.77937 -1.06066 1.06066 
C -0.77937 1.341951 -0.397805 1.5 0 1.5 
z
" id="m64ec2fb253" style="stroke:#17becf;"/>
    </defs>
    <g clip-path="url(#p74d4f115f6)">
     <use style="fill:#17becf;stroke:#17becf;" x="90" xlink:href="#m64ec2fb253" y="368.041395"/>
     <use style="fill:#17becf;stroke:#17becf;" x="145.8" xlink:href="#m64ec2fb253" y="368.041395"/>
     <use style="fill:#17becf;stroke:#17becf;" x="201.6" xlink:href="#m64ec2fb253" y="367.60186"/>
     <use style="fill:#17becf;stroke:#17becf;" x="257.4" xlink:href="#m64ec2fb253" y="367.60186"/>
     <use style="fill:#17becf;stroke:#17becf;" x="313.2" xlink:href="#m64ec2fb253" y="367.60186"/>
     <use style="fill:#17becf;stroke:#17becf;" x="369" xlink:href="#m64ec2fb253" y="367.60186"/>
     <use style="fill:#17becf;stroke:#17becf;" x="424.8" xlink:href="#m64ec2fb253" y="367.60186"/>
     <use style="fill:#17becf;stroke:#17becf;" x="480.6" xlink:href="#m64ec2fb253" y="360.129767"/>
     <use style="fill:#17becf;stroke:#17becf;" x="536.4" xlink:href="#m64ec2fb253" y="352.657674"/>
    </g>
   </g>
   <g id="line2d_30">
    <path clip-path="url(#p74d4f115f6)" d="M 90 368.48093 
L 145.8 366.283256 
L 201.6 366.283256 
L 257.4 365.843721 
L 313.2 366.283256 
L 369 365.404186 
L 424.8 365.404186 
L 480.6 357.492558 
L 536.4 355.734419 
" style="fill:none;stroke:#1f77b4;stroke-linecap:square;stroke-width:1.5;"/>
    <g clip-path="url(#p74d4f115f6)">
     <use style="fill:#1f77b4;stroke:#1f77b4;" x="90" xlink:href="#me45469d8bb" y="368.48093"/>
     <use style="fill:#1f77b4;stroke:#1f77b4;" x="145.8" xlink:href="#me45469d8bb" y="366.283256"/>
     <use style="fill:#1f77b4;stroke:#1f77b4;" x="201.6" xlink:href="#me45469d8bb" y="366.283256"/>
     <use style="fill:#1f77b4;stroke:#1f77b4;" x="257.4" xlink:href="#me45469d8bb" y="365.843721"/>
     <use style="fill:#1f77b4;stroke:#1f77b4;" x="313.2" xlink:href="#me45469d8bb" y="366.283256"/>
     <use style="fill:#1f77b4;stroke:#1f77b4;" x="369" xlink:href="#me45469d8bb" y="365.404186"/>
     <use style="fill:#1f77b4;stroke:#1f77b4;" x="424.8" xlink:href="#me45469d8bb" y="365.404186"/>
     <use style="fill:#1f77b4;stroke:#1f77b4;" x="480.6" xlink:href="#me45469d8bb" y="357.492558"/>
     <use style="fill:#1f77b4;stroke:#1f77b4;" x="536.4" xlink:href="#me45469d8bb" y="355.734419"/>
    </g>
   </g>
   <g id="line2d_31">
    <path clip-path="url(#p74d4f115f6)" d="M 90 368.920465 
L 145.8 368.920465 
L 201.6 368.48093 
L 257.4 368.48093 
L 313.2 367.60186 
L 369 366.722791 
L 424.8 365.404186 
L 480.6 358.811163 
L 536.4 356.173953 
" style="fill:none;stroke:#ff7f0e;stroke-linecap:square;stroke-width:1.5;"/>
    <g clip-path="url(#p74d4f115f6)">
     <use style="fill:#ff7f0e;stroke:#ff7f0e;" x="90" xlink:href="#m5d4ece54b9" y="368.920465"/>
     <use style="fill:#ff7f0e;stroke:#ff7f0e;" x="145.8" xlink:href="#m5d4ece54b9" y="368.920465"/>
     <use style="fill:#ff7f0e;stroke:#ff7f0e;" x="201.6" xlink:href="#m5d4ece54b9" y="368.48093"/>
     <use style="fill:#ff7f0e;stroke:#ff7f0e;" x="257.4" xlink:href="#m5d4ece54b9" y="368.48093"/>
     <use style="fill:#ff7f0e;stroke:#ff7f0e;" x="313.2" xlink:href="#m5d4ece54b9" y="367.60186"/>
     <use style="fill:#ff7f0e;stroke:#ff7f0e;" x="369" xlink:href="#m5d4ece54b9" y="366.722791"/>
     <use style="fill:#ff7f0e;stroke:#ff7f0e;" x="424.8" xlink:href="#m5d4ece54b9" y="365.404186"/>
     <use style="fill:#ff7f0e;stroke:#ff7f0e;" x="480.6" xlink:href="#m5d4ece54b9" y="358.811163"/>
     <use style="fill:#ff7f0e;stroke:#ff7f0e;" x="536.4" xlink:href="#m5d4ece54b9" y="356.173953"/>
    </g>
   </g>
   <g id="line2d_32">
    <path clip-path="url(#p74d4f115f6)" d="M 90 369.36 
L 145.8 369.36 
L 201.6 369.36 
L 257.4 369.36 
L 313.2 369.36 
L 369 369.36 
L 424.8 366.283256 
L 480.6 362.766977 
L 536.4 357.492558 
" style="fill:none;stroke:#2ca02c;stroke-linecap:square;stroke-width:1.5;"/>
    <g clip-path="url(#p74d4f115f6)">
     <use style="fill:#2ca02c;stroke:#2ca02c;" x="90" xlink:href="#m0fb1d75d70" y="369.36"/>
     <use style="fill:#2ca02c;stroke:#2ca02c;" x="145.8" xlink:href="#m0fb1d75d70" y="369.36"/>
     <use style="fill:#2ca02c;stroke:#2ca02c;" x="201.6" xlink:href="#m0fb1d75d70" y="369.36"/>
     <use style="fill:#2ca02c;stroke:#2ca02c;" x="257.4" xlink:href="#m0fb1d75d70" y="369.36"/>
     <use style="fill:#2ca02c;stroke:#2ca02c;" x="313.2" xlink:href="#m0fb1d75d70" y="369.36"/>
     <use style="fill:#2ca02c;stroke:#2ca02c;" x="369" xlink:href="#m0fb1d75d70" y="369.36"/>
     <use style="fill:#2ca02c;stroke:#2ca02c;" x="424.8" xlink:href="#m0fb1d75d70" y="366.283256"/>
     <use style="fill:#2ca02c;stroke:#2ca02c;" x="480.6" xlink:href="#m0fb1d75d70" y="362.766977"/>
     <use style="fill:#2ca02c;stroke:#2ca02c;" x="536.4" xlink:href="#m0fb1d75d70" y="357.492558"/>
    </g>
   </g>
   <g id="line2d_33">
    <path clip-path="url(#p74d4f115f6)" d="M 90 367.60186 
L 145.8 367.60186 
L 201.6 367.162326 
L 257.4 367.162326 
L 313.2 365.843721 
L 369 364.964651 
L 424.8 363.646047 
L 480.6 361.887907 
L 536.4 359.250698 
" style="fill:none;stroke:#d62728;stroke-linecap:square;stroke-width:1.5;"/>
    <g clip-path="url(#p74d4f115f6)">
     <use style="fill:#d62728;stroke:#d62728;" x="90" xlink:href="#mfa1b292ce5" y="367.60186"/>
     <use style="fill:#d62728;stroke:#d62728;" x="145.8" xlink:href="#mfa1b292ce5" y="367.60186"/>
     <use style="fill:#d62728;stroke:#d62728;" x="201.6" xlink:href="#mfa1b292ce5" y="367.162326"/>
     <use style="fill:#d62728;stroke:#d62728;" x="257.4" xlink:href="#mfa1b292ce5" y="367.162326"/>
     <use style="fill:#d62728;stroke:#d62728;" x="313.2" xlink:href="#mfa1b292ce5" y="365.843721"/>
     <use style="fill:#d62728;stroke:#d62728;" x="369" xlink:href="#mfa1b292ce5" y="364.964651"/>
     <use style="fill:#d62728;stroke:#d62728;" x="424.8" xlink:href="#mfa1b292ce5" y="363.646047"/>
     <use style="fill:#d62728;stroke:#d62728;" x="480.6" xlink:href="#mfa1b292ce5" y="361.887907"/>
     <use style="fill:#d62728;stroke:#d62728;" x="536.4" xlink:href="#mfa1b292ce5" y="359.250698"/>
    </g>
   </g>
   <g id="line2d_34">
    <path clip-path="url(#p74d4f115f6)" d="M 90 368.920465 
L 145.8 368.920465 
L 201.6 368.920465 
L 257.4 368.48093 
L 313.2 368.48093 
L 369 368.48093 
L 424.8 367.60186 
L 480.6 364.964651 
L 536.4 363.206512 
" style="fill:none;stroke:#9467bd;stroke-linecap:square;stroke-width:1.5;"/>
    <g clip-path="url(#p74d4f115f6)">
     <use style="fill:#9467bd;stroke:#9467bd;" x="90" xlink:href="#m977adbccf1" y="368.920465"/>
     <use style="fill:#9467bd;stroke:#9467bd;" x="145.8" xlink:href="#m977adbccf1" y="368.920465"/>
     <use style="fill:#9467bd;stroke:#9467bd;" x="201.6" xlink:href="#m977adbccf1" y="368.920465"/>
     <use style="fill:#9467bd;stroke:#9467bd;" x="257.4" xlink:href="#m977adbccf1" y="368.48093"/>
     <use style="fill:#9467bd;stroke:#9467bd;" x="313.2" xlink:href="#m977adbccf1" y="368.48093"/>
     <use style="fill:#9467bd;stroke:#9467bd;" x="369" xlink:href="#m977adbccf1" y="368.48093"/>
     <use style="fill:#9467bd;stroke:#9467bd;" x="424.8" xlink:href="#m977adbccf1" y="367.60186"/>
     <use style="fill:#9467bd;stroke:#9467bd;" x="480.6" xlink:href="#m977adbccf1" y="364.964651"/>
     <use style="fill:#9467bd;stroke:#9467bd;" x="536.4" xlink:href="#m977adbccf1" y="363.206512"/>
    </g>
   </g>
   <g id="line2d_35">
    <path clip-path="url(#p74d4f115f6)" d="M 90 368.920465 
L 145.8 368.920465 
L 201.6 368.48093 
L 257.4 368.041395 
L 313.2 365.404186 
L 369 366.722791 
L 424.8 366.283256 
L 480.6 363.206512 
L 536.4 363.206512 
" style="fill:none;stroke:#8c564b;stroke-linecap:square;stroke-width:1.5;"/>
    <g clip-path="url(#p74d4f115f6)">
     <use style="fill:#8c564b;stroke:#8c564b;" x="90" xlink:href="#m6cb30984bc" y="368.920465"/>
     <use style="fill:#8c564b;stroke:#8c564b;" x="145.8" xlink:href="#m6cb30984bc" y="368.920465"/>
     <use style="fill:#8c564b;stroke:#8c564b;" x="201.6" xlink:href="#m6cb30984bc" y="368.48093"/>
     <use style="fill:#8c564b;stroke:#8c564b;" x="257.4" xlink:href="#m6cb30984bc" y="368.041395"/>
     <use style="fill:#8c564b;stroke:#8c564b;" x="313.2" xlink:href="#m6cb30984bc" y="365.404186"/>
     <use style="fill:#8c564b;stroke:#8c564b;" x="369" xlink:href="#m6cb30984bc" y="366.722791"/>
     <use style="fill:#8c564b;stroke:#8c564b;" x="424.8" xlink:href="#m6cb30984bc" y="366.283256"/>
     <use style="fill:#8c564b;stroke:#8c564b;" x="480.6" xlink:href="#m6cb30984bc" y="363.206512"/>
     <use style="fill:#8c564b;stroke:#8c564b;" x="536.4" xlink:href="#m6cb30984bc" y="363.206512"/>
    </g>
   </g>
   <g id="line2d_36">
    <path clip-path="url(#p74d4f115f6)" d="M 592.2 384.48 
L 592.2 51.84 
" style="fill:none;stroke:#000000;stroke-linecap:square;stroke-opacity:0.2;stroke-width:3;"/>
   </g>
   <g id="patch_3">
    <path d="M 90 384.48 
L 90 51.84 
" style="fill:none;stroke:#000000;stroke-linecap:square;stroke-linejoin:miter;stroke-width:0.8;"/>
   </g>
   <g id="patch_4">
    <path d="M 648 384.48 
L 648 51.84 
" style="fill:none;stroke:#000000;stroke-linecap:square;stroke-linejoin:miter;stroke-width:0.8;"/>
   </g>
   <g id="patch_5">
    <path d="M 90 384.48 
L 648 384.48 
" style="fill:none;stroke:#000000;stroke-linecap:square;stroke-linejoin:miter;stroke-width:0.8;"/>
   </g>
   <g id="patch_6">
    <path d="M 90 51.84 
L 648 51.84 
" style="fill:none;stroke:#000000;stroke-linecap:square;stroke-linejoin:miter;stroke-width:0.8;"/>
   </g>
   <g id="text_20">
    <g id="patch_7">
     <path d="M 542.4 71.039687 
L 648.534375 71.039687 
L 648.534375 57.361562 
L 542.4 57.361562 
z
" style="fill:#ffffff;fill-opacity:0.5;"/>
    </g>
    <!-- Nordrhein-Westfalen -->
    <defs>
     <path d="M 9.8125 72.90625 
L 23.09375 72.90625 
L 55.421875 11.921875 
L 55.421875 72.90625 
L 64.984375 72.90625 
L 64.984375 0 
L 51.703125 0 
L 19.390625 60.984375 
L 19.390625 0 
L 9.8125 0 
z
" id="DejaVuSans-78"/>
     <path d="M 30.609375 48.390625 
Q 23.390625 48.390625 19.1875 42.75 
Q 14.984375 37.109375 14.984375 27.296875 
Q 14.984375 17.484375 19.15625 11.84375 
Q 23.34375 6.203125 30.609375 6.203125 
Q 37.796875 6.203125 41.984375 11.859375 
Q 46.1875 17.53125 46.1875 27.296875 
Q 46.1875 37.015625 41.984375 42.703125 
Q 37.796875 48.390625 30.609375 48.390625 
z
M 30.609375 56 
Q 42.328125 56 49.015625 48.375 
Q 55.71875 40.765625 55.71875 27.296875 
Q 55.71875 13.875 49.015625 6.21875 
Q 42.328125 -1.421875 30.609375 -1.421875 
Q 18.84375 -1.421875 12.171875 6.21875 
Q 5.515625 13.875 5.515625 27.296875 
Q 5.515625 40.765625 12.171875 48.375 
Q 18.84375 56 30.609375 56 
z
" id="DejaVuSans-111"/>
     <path d="M 45.40625 46.390625 
L 45.40625 75.984375 
L 54.390625 75.984375 
L 54.390625 0 
L 45.40625 0 
L 45.40625 8.203125 
Q 42.578125 3.328125 38.25 0.953125 
Q 33.9375 -1.421875 27.875 -1.421875 
Q 17.96875 -1.421875 11.734375 6.484375 
Q 5.515625 14.40625 5.515625 27.296875 
Q 5.515625 40.1875 11.734375 48.09375 
Q 17.96875 56 27.875 56 
Q 33.9375 56 38.25 53.625 
Q 42.578125 51.265625 45.40625 46.390625 
z
M 14.796875 27.296875 
Q 14.796875 17.390625 18.875 11.75 
Q 22.953125 6.109375 30.078125 6.109375 
Q 37.203125 6.109375 41.296875 11.75 
Q 45.40625 17.390625 45.40625 27.296875 
Q 45.40625 37.203125 41.296875 42.84375 
Q 37.203125 48.484375 30.078125 48.484375 
Q 22.953125 48.484375 18.875 42.84375 
Q 14.796875 37.203125 14.796875 27.296875 
z
" id="DejaVuSans-100"/>
     <path d="M 54.890625 33.015625 
L 54.890625 0 
L 45.90625 0 
L 45.90625 32.71875 
Q 45.90625 40.484375 42.875 44.328125 
Q 39.84375 48.1875 33.796875 48.1875 
Q 26.515625 48.1875 22.3125 43.546875 
Q 18.109375 38.921875 18.109375 30.90625 
L 18.109375 0 
L 9.078125 0 
L 9.078125 75.984375 
L 18.109375 75.984375 
L 18.109375 46.1875 
Q 21.34375 51.125 25.703125 53.5625 
Q 30.078125 56 35.796875 56 
Q 45.21875 56 50.046875 50.171875 
Q 54.890625 44.34375 54.890625 33.015625 
z
" id="DejaVuSans-104"/>
     <path d="M 56.203125 29.59375 
L 56.203125 25.203125 
L 14.890625 25.203125 
Q 15.484375 15.921875 20.484375 11.0625 
Q 25.484375 6.203125 34.421875 6.203125 
Q 39.59375 6.203125 44.453125 7.46875 
Q 49.3125 8.734375 54.109375 11.28125 
L 54.109375 2.78125 
Q 49.265625 0.734375 44.1875 -0.34375 
Q 39.109375 -1.421875 33.890625 -1.421875 
Q 20.796875 -1.421875 13.15625 6.1875 
Q 5.515625 13.8125 5.515625 26.8125 
Q 5.515625 40.234375 12.765625 48.109375 
Q 20.015625 56 32.328125 56 
Q 43.359375 56 49.78125 48.890625 
Q 56.203125 41.796875 56.203125 29.59375 
z
M 47.21875 32.234375 
Q 47.125 39.59375 43.09375 43.984375 
Q 39.0625 48.390625 32.421875 48.390625 
Q 24.90625 48.390625 20.390625 44.140625 
Q 15.875 39.890625 15.1875 32.171875 
z
" id="DejaVuSans-101"/>
     <path d="M 9.421875 54.6875 
L 18.40625 54.6875 
L 18.40625 0 
L 9.421875 0 
z
M 9.421875 75.984375 
L 18.40625 75.984375 
L 18.40625 64.59375 
L 9.421875 64.59375 
z
" id="DejaVuSans-105"/>
     <path d="M 54.890625 33.015625 
L 54.890625 0 
L 45.90625 0 
L 45.90625 32.71875 
Q 45.90625 40.484375 42.875 44.328125 
Q 39.84375 48.1875 33.796875 48.1875 
Q 26.515625 48.1875 22.3125 43.546875 
Q 18.109375 38.921875 18.109375 30.90625 
L 18.109375 0 
L 9.078125 0 
L 9.078125 54.6875 
L 18.109375 54.6875 
L 18.109375 46.1875 
Q 21.34375 51.125 25.703125 53.5625 
Q 30.078125 56 35.796875 56 
Q 45.21875 56 50.046875 50.171875 
Q 54.890625 44.34375 54.890625 33.015625 
z
" id="DejaVuSans-110"/>
     <path d="M 4.890625 31.390625 
L 31.203125 31.390625 
L 31.203125 23.390625 
L 4.890625 23.390625 
z
" id="DejaVuSans-45"/>
     <path d="M 3.328125 72.90625 
L 13.28125 72.90625 
L 28.609375 11.28125 
L 43.890625 72.90625 
L 54.984375 72.90625 
L 70.3125 11.28125 
L 85.59375 72.90625 
L 95.609375 72.90625 
L 77.296875 0 
L 64.890625 0 
L 49.515625 63.28125 
L 33.984375 0 
L 21.578125 0 
z
" id="DejaVuSans-87"/>
     <path d="M 44.28125 53.078125 
L 44.28125 44.578125 
Q 40.484375 46.53125 36.375 47.5 
Q 32.28125 48.484375 27.875 48.484375 
Q 21.1875 48.484375 17.84375 46.4375 
Q 14.5 44.390625 14.5 40.28125 
Q 14.5 37.15625 16.890625 35.375 
Q 19.28125 33.59375 26.515625 31.984375 
L 29.59375 31.296875 
Q 39.15625 29.25 43.1875 25.515625 
Q 47.21875 21.78125 47.21875 15.09375 
Q 47.21875 7.46875 41.1875 3.015625 
Q 35.15625 -1.421875 24.609375 -1.421875 
Q 20.21875 -1.421875 15.453125 -0.5625 
Q 10.6875 0.296875 5.421875 2 
L 5.421875 11.28125 
Q 10.40625 8.6875 15.234375 7.390625 
Q 20.0625 6.109375 24.8125 6.109375 
Q 31.15625 6.109375 34.5625 8.28125 
Q 37.984375 10.453125 37.984375 14.40625 
Q 37.984375 18.0625 35.515625 20.015625 
Q 33.0625 21.96875 24.703125 23.78125 
L 21.578125 24.515625 
Q 13.234375 26.265625 9.515625 29.90625 
Q 5.8125 33.546875 5.8125 39.890625 
Q 5.8125 47.609375 11.28125 51.796875 
Q 16.75 56 26.8125 56 
Q 31.78125 56 36.171875 55.265625 
Q 40.578125 54.546875 44.28125 53.078125 
z
" id="DejaVuSans-115"/>
     <path d="M 18.3125 70.21875 
L 18.3125 54.6875 
L 36.8125 54.6875 
L 36.8125 47.703125 
L 18.3125 47.703125 
L 18.3125 18.015625 
Q 18.3125 11.328125 20.140625 9.421875 
Q 21.96875 7.515625 27.59375 7.515625 
L 36.8125 7.515625 
L 36.8125 0 
L 27.59375 0 
Q 17.1875 0 13.234375 3.875 
Q 9.28125 7.765625 9.28125 18.015625 
L 9.28125 47.703125 
L 2.6875 47.703125 
L 2.6875 54.6875 
L 9.28125 54.6875 
L 9.28125 70.21875 
z
" id="DejaVuSans-116"/>
     <path d="M 37.109375 75.984375 
L 37.109375 68.5 
L 28.515625 68.5 
Q 23.6875 68.5 21.796875 66.546875 
Q 19.921875 64.59375 19.921875 59.515625 
L 19.921875 54.6875 
L 34.71875 54.6875 
L 34.71875 47.703125 
L 19.921875 47.703125 
L 19.921875 0 
L 10.890625 0 
L 10.890625 47.703125 
L 2.296875 47.703125 
L 2.296875 54.6875 
L 10.890625 54.6875 
L 10.890625 58.5 
Q 10.890625 67.625 15.140625 71.796875 
Q 19.390625 75.984375 28.609375 75.984375 
z
" id="DejaVuSans-102"/>
     <path d="M 9.421875 75.984375 
L 18.40625 75.984375 
L 18.40625 0 
L 9.421875 0 
z
" id="DejaVuSans-108"/>
    </defs>
    <g transform="translate(544.4 66.96)scale(0.1 -0.1)">
     <use xlink:href="#DejaVuSans-78"/>
     <use x="74.804688" xlink:href="#DejaVuSans-111"/>
     <use x="135.986328" xlink:href="#DejaVuSans-114"/>
     <use x="175.349609" xlink:href="#DejaVuSans-100"/>
     <use x="238.826172" xlink:href="#DejaVuSans-114"/>
     <use x="278.189453" xlink:href="#DejaVuSans-104"/>
     <use x="341.568359" xlink:href="#DejaVuSans-101"/>
     <use x="403.091797" xlink:href="#DejaVuSans-105"/>
     <use x="430.875" xlink:href="#DejaVuSans-110"/>
     <use x="494.253906" xlink:href="#DejaVuSans-45"/>
     <use x="526.337891" xlink:href="#DejaVuSans-87"/>
     <use x="619.339844" xlink:href="#DejaVuSans-101"/>
     <use x="680.863281" xlink:href="#DejaVuSans-115"/>
     <use x="732.962891" xlink:href="#DejaVuSans-116"/>
     <use x="772.171875" xlink:href="#DejaVuSans-102"/>
     <use x="807.376953" xlink:href="#DejaVuSans-97"/>
     <use x="868.65625" xlink:href="#DejaVuSans-108"/>
     <use x="896.439453" xlink:href="#DejaVuSans-101"/>
     <use x="957.962891" xlink:href="#DejaVuSans-110"/>
    </g>
   </g>
   <g id="text_21">
    <g id="patch_8">
     <path d="M 542.4 153.672246 
L 581.734375 153.672246 
L 581.734375 139.994121 
L 542.4 139.994121 
z
" style="fill:#ffffff;fill-opacity:0.5;"/>
    </g>
    <!-- Bayern -->
    <defs>
     <path d="M 19.671875 34.8125 
L 19.671875 8.109375 
L 35.5 8.109375 
Q 43.453125 8.109375 47.28125 11.40625 
Q 51.125 14.703125 51.125 21.484375 
Q 51.125 28.328125 47.28125 31.5625 
Q 43.453125 34.8125 35.5 34.8125 
z
M 19.671875 64.796875 
L 19.671875 42.828125 
L 34.28125 42.828125 
Q 41.5 42.828125 45.03125 45.53125 
Q 48.578125 48.25 48.578125 53.8125 
Q 48.578125 59.328125 45.03125 62.0625 
Q 41.5 64.796875 34.28125 64.796875 
z
M 9.8125 72.90625 
L 35.015625 72.90625 
Q 46.296875 72.90625 52.390625 68.21875 
Q 58.5 63.53125 58.5 54.890625 
Q 58.5 48.1875 55.375 44.234375 
Q 52.25 40.28125 46.1875 39.3125 
Q 53.46875 37.75 57.5 32.78125 
Q 61.53125 27.828125 61.53125 20.40625 
Q 61.53125 10.640625 54.890625 5.3125 
Q 48.25 0 35.984375 0 
L 9.8125 0 
z
" id="DejaVuSans-66"/>
     <path d="M 32.171875 -5.078125 
Q 28.375 -14.84375 24.75 -17.8125 
Q 21.140625 -20.796875 15.09375 -20.796875 
L 7.90625 -20.796875 
L 7.90625 -13.28125 
L 13.1875 -13.28125 
Q 16.890625 -13.28125 18.9375 -11.515625 
Q 21 -9.765625 23.484375 -3.21875 
L 25.09375 0.875 
L 2.984375 54.6875 
L 12.5 54.6875 
L 29.59375 11.921875 
L 46.6875 54.6875 
L 56.203125 54.6875 
z
" id="DejaVuSans-121"/>
    </defs>
    <g transform="translate(544.4 149.592558)scale(0.1 -0.1)">
     <use xlink:href="#DejaVuSans-66"/>
     <use x="68.603516" xlink:href="#DejaVuSans-97"/>
     <use x="129.882812" xlink:href="#DejaVuSans-121"/>
     <use x="189.0625" xlink:href="#DejaVuSans-101"/>
     <use x="250.585938" xlink:href="#DejaVuSans-114"/>
     <use x="289.949219" xlink:href="#DejaVuSans-110"/>
    </g>
   </g>
   <g id="text_22">
    <g id="patch_9">
     <path d="M 542.4 173.89085 
L 647.929688 173.89085 
L 647.929688 160.212725 
L 542.4 160.212725 
z
" style="fill:#ffffff;fill-opacity:0.5;"/>
    </g>
    <!-- Baden-Wrttemberg -->
    <defs>
     <path d="M 8.5 21.578125 
L 8.5 54.6875 
L 17.484375 54.6875 
L 17.484375 21.921875 
Q 17.484375 14.15625 20.5 10.265625 
Q 23.53125 6.390625 29.59375 6.390625 
Q 36.859375 6.390625 41.078125 11.03125 
Q 45.3125 15.671875 45.3125 23.6875 
L 45.3125 54.6875 
L 54.296875 54.6875 
L 54.296875 0 
L 45.3125 0 
L 45.3125 8.40625 
Q 42.046875 3.421875 37.71875 1 
Q 33.40625 -1.421875 27.6875 -1.421875 
Q 18.265625 -1.421875 13.375 4.4375 
Q 8.5 10.296875 8.5 21.578125 
z
M 31.109375 56 
z
M 35.59375 75.78125 
L 45.5 75.78125 
L 45.5 65.921875 
L 35.59375 65.921875 
z
M 16.5 75.78125 
L 26.40625 75.78125 
L 26.40625 65.921875 
L 16.5 65.921875 
z
" id="DejaVuSans-252"/>
     <path d="M 52 44.1875 
Q 55.375 50.25 60.0625 53.125 
Q 64.75 56 71.09375 56 
Q 79.640625 56 84.28125 50.015625 
Q 88.921875 44.046875 88.921875 33.015625 
L 88.921875 0 
L 79.890625 0 
L 79.890625 32.71875 
Q 79.890625 40.578125 77.09375 44.375 
Q 74.3125 48.1875 68.609375 48.1875 
Q 61.625 48.1875 57.5625 43.546875 
Q 53.515625 38.921875 53.515625 30.90625 
L 53.515625 0 
L 44.484375 0 
L 44.484375 32.71875 
Q 44.484375 40.625 41.703125 44.40625 
Q 38.921875 48.1875 33.109375 48.1875 
Q 26.21875 48.1875 22.15625 43.53125 
Q 18.109375 38.875 18.109375 30.90625 
L 18.109375 0 
L 9.078125 0 
L 9.078125 54.6875 
L 18.109375 54.6875 
L 18.109375 46.1875 
Q 21.1875 51.21875 25.484375 53.609375 
Q 29.78125 56 35.6875 56 
Q 41.65625 56 45.828125 52.96875 
Q 50 49.953125 52 44.1875 
z
" id="DejaVuSans-109"/>
     <path d="M 48.6875 27.296875 
Q 48.6875 37.203125 44.609375 42.84375 
Q 40.53125 48.484375 33.40625 48.484375 
Q 26.265625 48.484375 22.1875 42.84375 
Q 18.109375 37.203125 18.109375 27.296875 
Q 18.109375 17.390625 22.1875 11.75 
Q 26.265625 6.109375 33.40625 6.109375 
Q 40.53125 6.109375 44.609375 11.75 
Q 48.6875 17.390625 48.6875 27.296875 
z
M 18.109375 46.390625 
Q 20.953125 51.265625 25.265625 53.625 
Q 29.59375 56 35.59375 56 
Q 45.5625 56 51.78125 48.09375 
Q 58.015625 40.1875 58.015625 27.296875 
Q 58.015625 14.40625 51.78125 6.484375 
Q 45.5625 -1.421875 35.59375 -1.421875 
Q 29.59375 -1.421875 25.265625 0.953125 
Q 20.953125 3.328125 18.109375 8.203125 
L 18.109375 0 
L 9.078125 0 
L 9.078125 75.984375 
L 18.109375 75.984375 
z
" id="DejaVuSans-98"/>
     <path d="M 45.40625 27.984375 
Q 45.40625 37.75 41.375 43.109375 
Q 37.359375 48.484375 30.078125 48.484375 
Q 22.859375 48.484375 18.828125 43.109375 
Q 14.796875 37.75 14.796875 27.984375 
Q 14.796875 18.265625 18.828125 12.890625 
Q 22.859375 7.515625 30.078125 7.515625 
Q 37.359375 7.515625 41.375 12.890625 
Q 45.40625 18.265625 45.40625 27.984375 
z
M 54.390625 6.78125 
Q 54.390625 -7.171875 48.1875 -13.984375 
Q 42 -20.796875 29.203125 -20.796875 
Q 24.46875 -20.796875 20.265625 -20.09375 
Q 16.0625 -19.390625 12.109375 -17.921875 
L 12.109375 -9.1875 
Q 16.0625 -11.328125 19.921875 -12.34375 
Q 23.78125 -13.375 27.78125 -13.375 
Q 36.625 -13.375 41.015625 -8.765625 
Q 45.40625 -4.15625 45.40625 5.171875 
L 45.40625 9.625 
Q 42.625 4.78125 38.28125 2.390625 
Q 33.9375 0 27.875 0 
Q 17.828125 0 11.671875 7.65625 
Q 5.515625 15.328125 5.515625 27.984375 
Q 5.515625 40.671875 11.671875 48.328125 
Q 17.828125 56 27.875 56 
Q 33.9375 56 38.28125 53.609375 
Q 42.625 51.21875 45.40625 46.390625 
L 45.40625 54.6875 
L 54.390625 54.6875 
z
" id="DejaVuSans-103"/>
    </defs>
    <g transform="translate(544.4 169.811163)scale(0.1 -0.1)">
     <use xlink:href="#DejaVuSans-66"/>
     <use x="68.603516" xlink:href="#DejaVuSans-97"/>
     <use x="129.882812" xlink:href="#DejaVuSans-100"/>
     <use x="193.359375" xlink:href="#DejaVuSans-101"/>
     <use x="254.882812" xlink:href="#DejaVuSans-110"/>
     <use x="318.261719" xlink:href="#DejaVuSans-45"/>
     <use x="350.345703" xlink:href="#DejaVuSans-87"/>
     <use x="445.597656" xlink:href="#DejaVuSans-252"/>
     <use x="508.976562" xlink:href="#DejaVuSans-114"/>
     <use x="550.089844" xlink:href="#DejaVuSans-116"/>
     <use x="589.298828" xlink:href="#DejaVuSans-116"/>
     <use x="628.507812" xlink:href="#DejaVuSans-101"/>
     <use x="690.03125" xlink:href="#DejaVuSans-109"/>
     <use x="787.443359" xlink:href="#DejaVuSans-98"/>
     <use x="850.919922" xlink:href="#DejaVuSans-101"/>
     <use x="912.443359" xlink:href="#DejaVuSans-114"/>
     <use x="951.806641" xlink:href="#DejaVuSans-103"/>
    </g>
   </g>
   <g id="text_23">
    <g id="patch_10">
     <path d="M 542.4 313.223408 
L 575.41875 313.223408 
L 575.41875 299.545283 
L 542.4 299.545283 
z
" style="fill:#ffffff;fill-opacity:0.5;"/>
    </g>
    <!-- Berlin -->
    <g transform="translate(544.4 309.143721)scale(0.1 -0.1)">
     <use xlink:href="#DejaVuSans-66"/>
     <use x="68.603516" xlink:href="#DejaVuSans-101"/>
     <use x="130.126953" xlink:href="#DejaVuSans-114"/>
     <use x="171.240234" xlink:href="#DejaVuSans-108"/>
     <use x="199.023438" xlink:href="#DejaVuSans-105"/>
     <use x="226.806641" xlink:href="#DejaVuSans-110"/>
    </g>
   </g>
   <g id="text_24">
    <g id="patch_11">
     <path d="M 542.4 316.739688 
L 620.298438 316.739688 
L 620.298438 303.061562 
L 542.4 303.061562 
z
" style="fill:#ffffff;fill-opacity:0.5;"/>
    </g>
    <!-- Niedersachsen -->
    <defs>
     <path d="M 48.78125 52.59375 
L 48.78125 44.1875 
Q 44.96875 46.296875 41.140625 47.34375 
Q 37.3125 48.390625 33.40625 48.390625 
Q 24.65625 48.390625 19.8125 42.84375 
Q 14.984375 37.3125 14.984375 27.296875 
Q 14.984375 17.28125 19.8125 11.734375 
Q 24.65625 6.203125 33.40625 6.203125 
Q 37.3125 6.203125 41.140625 7.25 
Q 44.96875 8.296875 48.78125 10.40625 
L 48.78125 2.09375 
Q 45.015625 0.34375 40.984375 -0.53125 
Q 36.96875 -1.421875 32.421875 -1.421875 
Q 20.0625 -1.421875 12.78125 6.34375 
Q 5.515625 14.109375 5.515625 27.296875 
Q 5.515625 40.671875 12.859375 48.328125 
Q 20.21875 56 33.015625 56 
Q 37.15625 56 41.109375 55.140625 
Q 45.0625 54.296875 48.78125 52.59375 
z
" id="DejaVuSans-99"/>
    </defs>
    <g transform="translate(544.4 312.66)scale(0.1 -0.1)">
     <use xlink:href="#DejaVuSans-78"/>
     <use x="74.804688" xlink:href="#DejaVuSans-105"/>
     <use x="102.587891" xlink:href="#DejaVuSans-101"/>
     <use x="164.111328" xlink:href="#DejaVuSans-100"/>
     <use x="227.587891" xlink:href="#DejaVuSans-101"/>
     <use x="289.111328" xlink:href="#DejaVuSans-114"/>
     <use x="330.224609" xlink:href="#DejaVuSans-115"/>
     <use x="382.324219" xlink:href="#DejaVuSans-97"/>
     <use x="443.603516" xlink:href="#DejaVuSans-99"/>
     <use x="498.583984" xlink:href="#DejaVuSans-104"/>
     <use x="561.962891" xlink:href="#DejaVuSans-115"/>
     <use x="614.0625" xlink:href="#DejaVuSans-101"/>
     <use x="675.585938" xlink:href="#DejaVuSans-110"/>
    </g>
   </g>
   <g id="text_25">
    <g id="patch_12">
     <path d="M 542.4 329.925734 
L 582.982813 329.925734 
L 582.982813 316.247609 
L 542.4 316.247609 
z
" style="fill:#ffffff;fill-opacity:0.5;"/>
    </g>
    <!-- Hessen -->
    <defs>
     <path d="M 9.8125 72.90625 
L 19.671875 72.90625 
L 19.671875 43.015625 
L 55.515625 43.015625 
L 55.515625 72.90625 
L 65.375 72.90625 
L 65.375 0 
L 55.515625 0 
L 55.515625 34.71875 
L 19.671875 34.71875 
L 19.671875 0 
L 9.8125 0 
z
" id="DejaVuSans-72"/>
    </defs>
    <g transform="translate(544.4 325.846047)scale(0.1 -0.1)">
     <use xlink:href="#DejaVuSans-72"/>
     <use x="75.195312" xlink:href="#DejaVuSans-101"/>
     <use x="136.71875" xlink:href="#DejaVuSans-115"/>
     <use x="188.818359" xlink:href="#DejaVuSans-115"/>
     <use x="240.917969" xlink:href="#DejaVuSans-101"/>
     <use x="302.441406" xlink:href="#DejaVuSans-110"/>
    </g>
   </g>
   <g id="text_26">
    <g id="patch_13">
     <path d="M 542.4 334.760618 
L 592.759375 334.760618 
L 592.759375 321.082493 
L 542.4 321.082493 
z
" style="fill:#ffffff;fill-opacity:0.5;"/>
    </g>
    <!-- Hamburg -->
    <defs>
     <path d="M 8.5 21.578125 
L 8.5 54.6875 
L 17.484375 54.6875 
L 17.484375 21.921875 
Q 17.484375 14.15625 20.5 10.265625 
Q 23.53125 6.390625 29.59375 6.390625 
Q 36.859375 6.390625 41.078125 11.03125 
Q 45.3125 15.671875 45.3125 23.6875 
L 45.3125 54.6875 
L 54.296875 54.6875 
L 54.296875 0 
L 45.3125 0 
L 45.3125 8.40625 
Q 42.046875 3.421875 37.71875 1 
Q 33.40625 -1.421875 27.6875 -1.421875 
Q 18.265625 -1.421875 13.375 4.4375 
Q 8.5 10.296875 8.5 21.578125 
z
M 31.109375 56 
z
" id="DejaVuSans-117"/>
    </defs>
    <g transform="translate(544.4 330.68093)scale(0.1 -0.1)">
     <use xlink:href="#DejaVuSans-72"/>
     <use x="75.195312" xlink:href="#DejaVuSans-97"/>
     <use x="136.474609" xlink:href="#DejaVuSans-109"/>
     <use x="233.886719" xlink:href="#DejaVuSans-98"/>
     <use x="297.363281" xlink:href="#DejaVuSans-117"/>
     <use x="360.742188" xlink:href="#DejaVuSans-114"/>
     <use x="400.105469" xlink:href="#DejaVuSans-103"/>
    </g>
   </g>
   <g id="text_27">
    <g id="patch_14">
     <path d="M 542.4 350.583874 
L 623.859375 350.583874 
L 623.859375 336.905749 
L 542.4 336.905749 
z
" style="fill:#ffffff;fill-opacity:0.5;"/>
    </g>
    <!-- Rheinland-Pfalz -->
    <defs>
     <path d="M 44.390625 34.1875 
Q 47.5625 33.109375 50.5625 29.59375 
Q 53.5625 26.078125 56.59375 19.921875 
L 66.609375 0 
L 56 0 
L 46.6875 18.703125 
Q 43.0625 26.03125 39.671875 28.421875 
Q 36.28125 30.8125 30.421875 30.8125 
L 19.671875 30.8125 
L 19.671875 0 
L 9.8125 0 
L 9.8125 72.90625 
L 32.078125 72.90625 
Q 44.578125 72.90625 50.734375 67.671875 
Q 56.890625 62.453125 56.890625 51.90625 
Q 56.890625 45.015625 53.6875 40.46875 
Q 50.484375 35.9375 44.390625 34.1875 
z
M 19.671875 64.796875 
L 19.671875 38.921875 
L 32.078125 38.921875 
Q 39.203125 38.921875 42.84375 42.21875 
Q 46.484375 45.515625 46.484375 51.90625 
Q 46.484375 58.296875 42.84375 61.546875 
Q 39.203125 64.796875 32.078125 64.796875 
z
" id="DejaVuSans-82"/>
     <path d="M 19.671875 64.796875 
L 19.671875 37.40625 
L 32.078125 37.40625 
Q 38.96875 37.40625 42.71875 40.96875 
Q 46.484375 44.53125 46.484375 51.125 
Q 46.484375 57.671875 42.71875 61.234375 
Q 38.96875 64.796875 32.078125 64.796875 
z
M 9.8125 72.90625 
L 32.078125 72.90625 
Q 44.34375 72.90625 50.609375 67.359375 
Q 56.890625 61.8125 56.890625 51.125 
Q 56.890625 40.328125 50.609375 34.8125 
Q 44.34375 29.296875 32.078125 29.296875 
L 19.671875 29.296875 
L 19.671875 0 
L 9.8125 0 
z
" id="DejaVuSans-80"/>
     <path d="M 5.515625 54.6875 
L 48.1875 54.6875 
L 48.1875 46.484375 
L 14.40625 7.171875 
L 48.1875 7.171875 
L 48.1875 0 
L 4.296875 0 
L 4.296875 8.203125 
L 38.09375 47.515625 
L 5.515625 47.515625 
z
" id="DejaVuSans-122"/>
    </defs>
    <g transform="translate(544.4 346.504186)scale(0.1 -0.1)">
     <use xlink:href="#DejaVuSans-82"/>
     <use x="69.482422" xlink:href="#DejaVuSans-104"/>
     <use x="132.861328" xlink:href="#DejaVuSans-101"/>
     <use x="194.384766" xlink:href="#DejaVuSans-105"/>
     <use x="222.167969" xlink:href="#DejaVuSans-110"/>
     <use x="285.546875" xlink:href="#DejaVuSans-108"/>
     <use x="313.330078" xlink:href="#DejaVuSans-97"/>
     <use x="374.609375" xlink:href="#DejaVuSans-110"/>
     <use x="437.988281" xlink:href="#DejaVuSans-100"/>
     <use x="501.464844" xlink:href="#DejaVuSans-45"/>
     <use x="537.548828" xlink:href="#DejaVuSans-80"/>
     <use x="597.851562" xlink:href="#DejaVuSans-102"/>
     <use x="633.056641" xlink:href="#DejaVuSans-97"/>
     <use x="694.335938" xlink:href="#DejaVuSans-108"/>
     <use x="722.119141" xlink:href="#DejaVuSans-122"/>
    </g>
   </g>
   <g id="text_28">
    <g id="patch_15">
     <path d="M 542.4 353.660618 
L 588.4125 353.660618 
L 588.4125 339.982493 
L 542.4 339.982493 
z
" style="fill:#ffffff;fill-opacity:0.5;"/>
    </g>
    <!-- Sachsen -->
    <defs>
     <path d="M 53.515625 70.515625 
L 53.515625 60.890625 
Q 47.90625 63.578125 42.921875 64.890625 
Q 37.9375 66.21875 33.296875 66.21875 
Q 25.25 66.21875 20.875 63.09375 
Q 16.5 59.96875 16.5 54.203125 
Q 16.5 49.359375 19.40625 46.890625 
Q 22.3125 44.4375 30.421875 42.921875 
L 36.375 41.703125 
Q 47.40625 39.59375 52.65625 34.296875 
Q 57.90625 29 57.90625 20.125 
Q 57.90625 9.515625 50.796875 4.046875 
Q 43.703125 -1.421875 29.984375 -1.421875 
Q 24.8125 -1.421875 18.96875 -0.25 
Q 13.140625 0.921875 6.890625 3.21875 
L 6.890625 13.375 
Q 12.890625 10.015625 18.65625 8.296875 
Q 24.421875 6.59375 29.984375 6.59375 
Q 38.421875 6.59375 43.015625 9.90625 
Q 47.609375 13.234375 47.609375 19.390625 
Q 47.609375 24.75 44.3125 27.78125 
Q 41.015625 30.8125 33.5 32.328125 
L 27.484375 33.5 
Q 16.453125 35.6875 11.515625 40.375 
Q 6.59375 45.0625 6.59375 53.421875 
Q 6.59375 63.09375 13.40625 68.65625 
Q 20.21875 74.21875 32.171875 74.21875 
Q 37.3125 74.21875 42.625 73.28125 
Q 47.953125 72.359375 53.515625 70.515625 
z
" id="DejaVuSans-83"/>
    </defs>
    <g transform="translate(544.4 349.58093)scale(0.1 -0.1)">
     <use xlink:href="#DejaVuSans-83"/>
     <use x="63.476562" xlink:href="#DejaVuSans-97"/>
     <use x="124.755859" xlink:href="#DejaVuSans-99"/>
     <use x="179.736328" xlink:href="#DejaVuSans-104"/>
     <use x="243.115234" xlink:href="#DejaVuSans-115"/>
     <use x="295.214844" xlink:href="#DejaVuSans-101"/>
     <use x="356.738281" xlink:href="#DejaVuSans-110"/>
    </g>
   </g>
   <g id="text_29">
    <g id="patch_16">
     <path d="M 542.4 356.737362 
L 585.53125 356.737362 
L 585.53125 343.059237 
L 542.4 343.059237 
z
" style="fill:#ffffff;fill-opacity:0.5;"/>
    </g>
    <!-- Bremen -->
    <g transform="translate(544.4 352.657674)scale(0.1 -0.1)">
     <use xlink:href="#DejaVuSans-66"/>
     <use x="68.603516" xlink:href="#DejaVuSans-114"/>
     <use x="107.466797" xlink:href="#DejaVuSans-101"/>
     <use x="168.990234" xlink:href="#DejaVuSans-109"/>
     <use x="266.402344" xlink:href="#DejaVuSans-101"/>
     <use x="327.925781" xlink:href="#DejaVuSans-110"/>
    </g>
   </g>
   <g id="text_30">
    <g id="patch_17">
     <path d="M 542.4 359.814106 
L 640.453125 359.814106 
L 640.453125 346.135981 
L 542.4 346.135981 
z
" style="fill:#ffffff;fill-opacity:0.5;"/>
    </g>
    <!-- Schleswig-Holstein -->
    <defs>
     <path d="M 4.203125 54.6875 
L 13.1875 54.6875 
L 24.421875 12.015625 
L 35.59375 54.6875 
L 46.1875 54.6875 
L 57.421875 12.015625 
L 68.609375 54.6875 
L 77.59375 54.6875 
L 63.28125 0 
L 52.6875 0 
L 40.921875 44.828125 
L 29.109375 0 
L 18.5 0 
z
" id="DejaVuSans-119"/>
    </defs>
    <g transform="translate(544.4 355.734419)scale(0.1 -0.1)">
     <use xlink:href="#DejaVuSans-83"/>
     <use x="63.476562" xlink:href="#DejaVuSans-99"/>
     <use x="118.457031" xlink:href="#DejaVuSans-104"/>
     <use x="181.835938" xlink:href="#DejaVuSans-108"/>
     <use x="209.619141" xlink:href="#DejaVuSans-101"/>
     <use x="271.142578" xlink:href="#DejaVuSans-115"/>
     <use x="323.242188" xlink:href="#DejaVuSans-119"/>
     <use x="405.029297" xlink:href="#DejaVuSans-105"/>
     <use x="432.8125" xlink:href="#DejaVuSans-103"/>
     <use x="496.289062" xlink:href="#DejaVuSans-45"/>
     <use x="532.373047" xlink:href="#DejaVuSans-72"/>
     <use x="607.568359" xlink:href="#DejaVuSans-111"/>
     <use x="668.75" xlink:href="#DejaVuSans-108"/>
     <use x="696.533203" xlink:href="#DejaVuSans-115"/>
     <use x="748.632812" xlink:href="#DejaVuSans-116"/>
     <use x="787.841797" xlink:href="#DejaVuSans-101"/>
     <use x="849.365234" xlink:href="#DejaVuSans-105"/>
     <use x="877.148438" xlink:href="#DejaVuSans-110"/>
    </g>
   </g>
   <g id="text_31">
    <g id="patch_18">
     <path d="M 542.4 360.253641 
L 611.646875 360.253641 
L 611.646875 346.575516 
L 542.4 346.575516 
z
" style="fill:#ffffff;fill-opacity:0.5;"/>
    </g>
    <!-- Brandenburg -->
    <g transform="translate(544.4 356.173953)scale(0.1 -0.1)">
     <use xlink:href="#DejaVuSans-66"/>
     <use x="68.603516" xlink:href="#DejaVuSans-114"/>
     <use x="109.716797" xlink:href="#DejaVuSans-97"/>
     <use x="170.996094" xlink:href="#DejaVuSans-110"/>
     <use x="234.375" xlink:href="#DejaVuSans-100"/>
     <use x="297.851562" xlink:href="#DejaVuSans-101"/>
     <use x="359.375" xlink:href="#DejaVuSans-110"/>
     <use x="422.753906" xlink:href="#DejaVuSans-98"/>
     <use x="486.230469" xlink:href="#DejaVuSans-117"/>
     <use x="549.609375" xlink:href="#DejaVuSans-114"/>
     <use x="588.972656" xlink:href="#DejaVuSans-103"/>
    </g>
   </g>
   <g id="text_32">
    <g id="patch_19">
     <path d="M 542.4 361.572246 
L 624.1375 361.572246 
L 624.1375 347.894121 
L 542.4 347.894121 
z
" style="fill:#ffffff;fill-opacity:0.5;"/>
    </g>
    <!-- Sachsen-Anhalt -->
    <defs>
     <path d="M 34.1875 63.1875 
L 20.796875 26.90625 
L 47.609375 26.90625 
z
M 28.609375 72.90625 
L 39.796875 72.90625 
L 67.578125 0 
L 57.328125 0 
L 50.6875 18.703125 
L 17.828125 18.703125 
L 11.1875 0 
L 0.78125 0 
z
" id="DejaVuSans-65"/>
    </defs>
    <g transform="translate(544.4 357.492558)scale(0.1 -0.1)">
     <use xlink:href="#DejaVuSans-83"/>
     <use x="63.476562" xlink:href="#DejaVuSans-97"/>
     <use x="124.755859" xlink:href="#DejaVuSans-99"/>
     <use x="179.736328" xlink:href="#DejaVuSans-104"/>
     <use x="243.115234" xlink:href="#DejaVuSans-115"/>
     <use x="295.214844" xlink:href="#DejaVuSans-101"/>
     <use x="356.738281" xlink:href="#DejaVuSans-110"/>
     <use x="420.117188" xlink:href="#DejaVuSans-45"/>
     <use x="453.951172" xlink:href="#DejaVuSans-65"/>
     <use x="522.359375" xlink:href="#DejaVuSans-110"/>
     <use x="585.738281" xlink:href="#DejaVuSans-104"/>
     <use x="649.117188" xlink:href="#DejaVuSans-97"/>
     <use x="710.396484" xlink:href="#DejaVuSans-108"/>
     <use x="738.179688" xlink:href="#DejaVuSans-116"/>
    </g>
   </g>
   <g id="text_33">
    <g id="patch_20">
     <path d="M 542.4 363.330385 
L 678.4 363.330385 
L 678.4 349.65226 
L 542.4 349.65226 
z
" style="fill:#ffffff;fill-opacity:0.5;"/>
    </g>
    <!-- Mecklenburg-Vorpommern -->
    <defs>
     <path d="M 9.078125 75.984375 
L 18.109375 75.984375 
L 18.109375 31.109375 
L 44.921875 54.6875 
L 56.390625 54.6875 
L 27.390625 29.109375 
L 57.625 0 
L 45.90625 0 
L 18.109375 26.703125 
L 18.109375 0 
L 9.078125 0 
z
" id="DejaVuSans-107"/>
     <path d="M 28.609375 0 
L 0.78125 72.90625 
L 11.078125 72.90625 
L 34.1875 11.53125 
L 57.328125 72.90625 
L 67.578125 72.90625 
L 39.796875 0 
z
" id="DejaVuSans-86"/>
     <path d="M 18.109375 8.203125 
L 18.109375 -20.796875 
L 9.078125 -20.796875 
L 9.078125 54.6875 
L 18.109375 54.6875 
L 18.109375 46.390625 
Q 20.953125 51.265625 25.265625 53.625 
Q 29.59375 56 35.59375 56 
Q 45.5625 56 51.78125 48.09375 
Q 58.015625 40.1875 58.015625 27.296875 
Q 58.015625 14.40625 51.78125 6.484375 
Q 45.5625 -1.421875 35.59375 -1.421875 
Q 29.59375 -1.421875 25.265625 0.953125 
Q 20.953125 3.328125 18.109375 8.203125 
z
M 48.6875 27.296875 
Q 48.6875 37.203125 44.609375 42.84375 
Q 40.53125 48.484375 33.40625 48.484375 
Q 26.265625 48.484375 22.1875 42.84375 
Q 18.109375 37.203125 18.109375 27.296875 
Q 18.109375 17.390625 22.1875 11.75 
Q 26.265625 6.109375 33.40625 6.109375 
Q 40.53125 6.109375 44.609375 11.75 
Q 48.6875 17.390625 48.6875 27.296875 
z
" id="DejaVuSans-112"/>
    </defs>
    <g transform="translate(544.4 359.250698)scale(0.1 -0.1)">
     <use xlink:href="#DejaVuSans-77"/>
     <use x="86.279297" xlink:href="#DejaVuSans-101"/>
     <use x="147.802734" xlink:href="#DejaVuSans-99"/>
     <use x="202.783203" xlink:href="#DejaVuSans-107"/>
     <use x="260.693359" xlink:href="#DejaVuSans-108"/>
     <use x="288.476562" xlink:href="#DejaVuSans-101"/>
     <use x="350" xlink:href="#DejaVuSans-110"/>
     <use x="413.378906" xlink:href="#DejaVuSans-98"/>
     <use x="476.855469" xlink:href="#DejaVuSans-117"/>
     <use x="540.234375" xlink:href="#DejaVuSans-114"/>
     <use x="579.597656" xlink:href="#DejaVuSans-103"/>
     <use x="643.074219" xlink:href="#DejaVuSans-45"/>
     <use x="673.283203" xlink:href="#DejaVuSans-86"/>
     <use x="733.941406" xlink:href="#DejaVuSans-111"/>
     <use x="795.123047" xlink:href="#DejaVuSans-114"/>
     <use x="836.236328" xlink:href="#DejaVuSans-112"/>
     <use x="899.712891" xlink:href="#DejaVuSans-111"/>
     <use x="960.894531" xlink:href="#DejaVuSans-109"/>
     <use x="1058.306641" xlink:href="#DejaVuSans-109"/>
     <use x="1155.71875" xlink:href="#DejaVuSans-101"/>
     <use x="1217.242188" xlink:href="#DejaVuSans-114"/>
     <use x="1256.605469" xlink:href="#DejaVuSans-110"/>
    </g>
   </g>
   <g id="text_34">
    <g id="patch_21">
     <path d="M 542.4 367.286199 
L 597.248438 367.286199 
L 597.248438 353.608074 
L 542.4 353.608074 
z
" style="fill:#ffffff;fill-opacity:0.5;"/>
    </g>
    <!-- Thringen -->
    <defs>
     <path d="M -0.296875 72.90625 
L 61.375 72.90625 
L 61.375 64.59375 
L 35.5 64.59375 
L 35.5 0 
L 25.59375 0 
L 25.59375 64.59375 
L -0.296875 64.59375 
z
" id="DejaVuSans-84"/>
    </defs>
    <g transform="translate(544.4 363.206512)scale(0.1 -0.1)">
     <use xlink:href="#DejaVuSans-84"/>
     <use x="61.083984" xlink:href="#DejaVuSans-104"/>
     <use x="124.462891" xlink:href="#DejaVuSans-252"/>
     <use x="187.841797" xlink:href="#DejaVuSans-114"/>
     <use x="228.955078" xlink:href="#DejaVuSans-105"/>
     <use x="256.738281" xlink:href="#DejaVuSans-110"/>
     <use x="320.117188" xlink:href="#DejaVuSans-103"/>
     <use x="383.59375" xlink:href="#DejaVuSans-101"/>
     <use x="445.117188" xlink:href="#DejaVuSans-110"/>
    </g>
   </g>
   <g id="text_35">
    <g id="patch_22">
     <path d="M 542.4 367.286199 
L 590.707813 367.286199 
L 590.707813 353.608074 
L 542.4 353.608074 
z
" style="fill:#ffffff;fill-opacity:0.5;"/>
    </g>
    <!-- Saarland -->
    <g transform="translate(544.4 363.206512)scale(0.1 -0.1)">
     <use xlink:href="#DejaVuSans-83"/>
     <use x="63.476562" xlink:href="#DejaVuSans-97"/>
     <use x="124.755859" xlink:href="#DejaVuSans-97"/>
     <use x="186.035156" xlink:href="#DejaVuSans-114"/>
     <use x="227.148438" xlink:href="#DejaVuSans-108"/>
     <use x="254.931641" xlink:href="#DejaVuSans-97"/>
     <use x="316.210938" xlink:href="#DejaVuSans-110"/>
     <use x="379.589844" xlink:href="#DejaVuSans-100"/>
    </g>
   </g>
   <g id="text_36">
    <!-- COVID-19 Infektionen pro Bundesland -->
    <defs>
     <path d="M 64.40625 67.28125 
L 64.40625 56.890625 
Q 59.421875 61.53125 53.78125 63.8125 
Q 48.140625 66.109375 41.796875 66.109375 
Q 29.296875 66.109375 22.65625 58.46875 
Q 16.015625 50.828125 16.015625 36.375 
Q 16.015625 21.96875 22.65625 14.328125 
Q 29.296875 6.6875 41.796875 6.6875 
Q 48.140625 6.6875 53.78125 8.984375 
Q 59.421875 11.28125 64.40625 15.921875 
L 64.40625 5.609375 
Q 59.234375 2.09375 53.4375 0.328125 
Q 47.65625 -1.421875 41.21875 -1.421875 
Q 24.65625 -1.421875 15.125 8.703125 
Q 5.609375 18.84375 5.609375 36.375 
Q 5.609375 53.953125 15.125 64.078125 
Q 24.65625 74.21875 41.21875 74.21875 
Q 47.75 74.21875 53.53125 72.484375 
Q 59.328125 70.75 64.40625 67.28125 
z
" id="DejaVuSans-67"/>
     <path d="M 39.40625 66.21875 
Q 28.65625 66.21875 22.328125 58.203125 
Q 16.015625 50.203125 16.015625 36.375 
Q 16.015625 22.609375 22.328125 14.59375 
Q 28.65625 6.59375 39.40625 6.59375 
Q 50.140625 6.59375 56.421875 14.59375 
Q 62.703125 22.609375 62.703125 36.375 
Q 62.703125 50.203125 56.421875 58.203125 
Q 50.140625 66.21875 39.40625 66.21875 
z
M 39.40625 74.21875 
Q 54.734375 74.21875 63.90625 63.9375 
Q 73.09375 53.65625 73.09375 36.375 
Q 73.09375 19.140625 63.90625 8.859375 
Q 54.734375 -1.421875 39.40625 -1.421875 
Q 24.03125 -1.421875 14.8125 8.828125 
Q 5.609375 19.09375 5.609375 36.375 
Q 5.609375 53.65625 14.8125 63.9375 
Q 24.03125 74.21875 39.40625 74.21875 
z
" id="DejaVuSans-79"/>
     <path d="M 9.8125 72.90625 
L 19.671875 72.90625 
L 19.671875 0 
L 9.8125 0 
z
" id="DejaVuSans-73"/>
     <path d="M 19.671875 64.796875 
L 19.671875 8.109375 
L 31.59375 8.109375 
Q 46.6875 8.109375 53.6875 14.9375 
Q 60.6875 21.78125 60.6875 36.53125 
Q 60.6875 51.171875 53.6875 57.984375 
Q 46.6875 64.796875 31.59375 64.796875 
z
M 9.8125 72.90625 
L 30.078125 72.90625 
Q 51.265625 72.90625 61.171875 64.09375 
Q 71.09375 55.28125 71.09375 36.53125 
Q 71.09375 17.671875 61.125 8.828125 
Q 51.171875 0 30.078125 0 
L 9.8125 0 
z
" id="DejaVuSans-68"/>
    </defs>
    <g transform="translate(255.224063 45.84)scale(0.12 -0.12)">
     <use xlink:href="#DejaVuSans-67"/>
     <use x="69.824219" xlink:href="#DejaVuSans-79"/>
     <use x="146.785156" xlink:href="#DejaVuSans-86"/>
     <use x="215.193359" xlink:href="#DejaVuSans-73"/>
     <use x="244.685547" xlink:href="#DejaVuSans-68"/>
     <use x="321.6875" xlink:href="#DejaVuSans-45"/>
     <use x="357.771484" xlink:href="#DejaVuSans-49"/>
     <use x="421.394531" xlink:href="#DejaVuSans-57"/>
     <use x="485.017578" xlink:href="#DejaVuSans-32"/>
     <use x="516.804688" xlink:href="#DejaVuSans-73"/>
     <use x="546.296875" xlink:href="#DejaVuSans-110"/>
     <use x="609.675781" xlink:href="#DejaVuSans-102"/>
     <use x="644.880859" xlink:href="#DejaVuSans-101"/>
     <use x="706.404297" xlink:href="#DejaVuSans-107"/>
     <use x="764.314453" xlink:href="#DejaVuSans-116"/>
     <use x="803.523438" xlink:href="#DejaVuSans-105"/>
     <use x="831.306641" xlink:href="#DejaVuSans-111"/>
     <use x="892.488281" xlink:href="#DejaVuSans-110"/>
     <use x="955.867188" xlink:href="#DejaVuSans-101"/>
     <use x="1017.390625" xlink:href="#DejaVuSans-110"/>
     <use x="1080.769531" xlink:href="#DejaVuSans-32"/>
     <use x="1112.556641" xlink:href="#DejaVuSans-112"/>
     <use x="1176.033203" xlink:href="#DejaVuSans-114"/>
     <use x="1214.896484" xlink:href="#DejaVuSans-111"/>
     <use x="1276.078125" xlink:href="#DejaVuSans-32"/>
     <use x="1307.865234" xlink:href="#DejaVuSans-66"/>
     <use x="1376.46875" xlink:href="#DejaVuSans-117"/>
     <use x="1439.847656" xlink:href="#DejaVuSans-110"/>
     <use x="1503.226562" xlink:href="#DejaVuSans-100"/>
     <use x="1566.703125" xlink:href="#DejaVuSans-101"/>
     <use x="1628.226562" xlink:href="#DejaVuSans-115"/>
     <use x="1680.326172" xlink:href="#DejaVuSans-108"/>
     <use x="1708.109375" xlink:href="#DejaVuSans-97"/>
     <use x="1769.388672" xlink:href="#DejaVuSans-110"/>
     <use x="1832.767578" xlink:href="#DejaVuSans-100"/>
    </g>
   </g>
  </g>
 </g>
 <defs>
  <clipPath id="p74d4f115f6">
   <rect height="332.64" width="558" x="90" y="51.84"/>
  </clipPath>
 </defs>
</svg>
